<?xml version="1.0" standalone="no"?>
<!DOCTYPE svg PUBLIC "-//W3C//DTD SVG 1.1//EN" "http://www.w3.org/Graphics/SVG/1.1/DTD/svg11.dtd" >
<svg>
<metadata>
Created by FontForge 20090622 at Mon Nov 19 20:57:53 2018
 By ffonts
Typeface &#194;&#169; MLKWSN Studio. All Rights Reserved
</metadata>
<defs>
<font id="Classical" horiz-adv-x="1345" >
  <font-face 
    font-family="Classical"
    font-weight="400"
    font-stretch="normal"
    units-per-em="2048"
    panose-1="2 0 5 0 0 0 0 0 0 0"
    ascent="1638"
    descent="-410"
    x-height="492"
    cap-height="1245"
    bbox="-2498 -607 2055 1426"
    underline-thickness="150"
    underline-position="-142"
    unicode-range="U+001D-U+E219"
  />
<missing-glyph horiz-adv-x="0" 
 />
    <glyph glyph-name="a.swsh" unicode="a__" horiz-adv-x="582" 
 />
    <glyph glyph-name="b.swsh" unicode="b__" horiz-adv-x="542" 
 />
    <glyph glyph-name="c.swsh" unicode="c__" horiz-adv-x="499" 
 />
    <glyph glyph-name="d.swsh" unicode="d__" horiz-adv-x="617" 
 />
    <glyph glyph-name="e.swsh" unicode="e__" horiz-adv-x="497" 
 />
    <glyph glyph-name="h.swsh" unicode="h__" horiz-adv-x="605" 
 />
    <glyph glyph-name="i.swsh" unicode="i__" horiz-adv-x="279" 
 />
    <glyph glyph-name="j.swsh" unicode="j__" horiz-adv-x="517" 
 />
    <glyph glyph-name="k.swsh" unicode="k__" horiz-adv-x="580" 
 />
    <glyph glyph-name="l.swsh" unicode="l__" horiz-adv-x="353" 
 />
    <glyph glyph-name="m.swsh" unicode="m__" horiz-adv-x="902" 
 />
    <glyph glyph-name="n.swsh" unicode="n__" horiz-adv-x="569" 
 />
    <glyph glyph-name="o.swsh" unicode="o__" horiz-adv-x="505" 
 />
    <glyph glyph-name="p.swsh" unicode="p__" horiz-adv-x="557" 
 />
    <glyph glyph-name="q.swsh" unicode="q__" horiz-adv-x="471" 
 />
    <glyph glyph-name="r.swsh" unicode="r__" horiz-adv-x="482" 
 />
    <glyph glyph-name="s.swsh" unicode="s__" horiz-adv-x="445" 
 />
    <glyph glyph-name="u.swsh" unicode="u__" horiz-adv-x="595" 
 />
    <glyph glyph-name="v.swsh" unicode="v__" horiz-adv-x="586" 
 />
    <glyph glyph-name="w.swsh" unicode="w__" horiz-adv-x="845" 
 />
    <glyph glyph-name="x.swsh" unicode="x__" horiz-adv-x="642" 
 />
    <glyph glyph-name="y.swsh" unicode="y__" horiz-adv-x="529" 
 />
    <glyph glyph-name="z.swsh" unicode="&#x7a;__" horiz-adv-x="630" 
 />
    <glyph glyph-name="ee" unicode="ee" horiz-adv-x="937" 
 />
    <glyph glyph-name="gg" unicode="gg" horiz-adv-x="1101" 
 />
    <glyph glyph-name="ll" unicode="ll" horiz-adv-x="691" 
 />
    <glyph glyph-name="rr" unicode="rr" horiz-adv-x="975" 
d="M42 405q50 75 50 112q0 10 -2.5 12.5t-10.5 5.5q-10 0 -22 -12q-28 -29 -28 -74q0 -29 13 -44zM735 -6q-46 0 -75 34q-27 39 -27 84q0 40 32.5 110.5t92.5 140.5q-77 12 -138 76q-39 -106 -133 -245q-123 -194 -236 -194q-44 0 -71 31q-22 26 -22 69q0 95 99 266
q-62 -52 -132 -52q-56 0 -93 20q-64 36 -64 117q0 65 44 114q30 31 64 31t55 -22t21 -56q0 -57 -56 -142q13 -2 25 -2q30 0 57 13t49.5 33t51.5 32q9 4 19 4q21 0 43 -16q12 -10 12 -24q0 -8 -5 -17q-66 -100 -104 -197q-25 -62 -25 -98q0 -43 30 -43h8q65 0 179 167
q53 80 93 156.5t40 101.5l-2 14q0 10 5 18t13 11.5t15 3.5q18 0 40 -28q70 -82 132 -82q25 0 52 11q5 2 11 2q5 0 12.5 -2t13 -10.5t5.5 -17.5q0 -13 -8 -22q-32 -32 -78 -92.5t-73 -123.5q-13 -31 -13 -57q0 -25 13 -44q9 -12 22 -12q46 0 119 74q66 66 110 129q9 12 25 12
q9 0 18 -5q12 -10 12 -25q0 -9 -5 -18q-10 -14 -53.5 -67.5t-103 -104t-116.5 -56.5z" />
    <glyph glyph-name="ss" unicode="ss" horiz-adv-x="849" 
d="M534 34q14 0 26 4q36 13 47 52v4q-65 -31 -115 -51q22 -9 42 -9zM159 58q25 0 45 7q32 13 39 36q3 15 3 28t-3 25q-79 -57 -132 -90q26 -6 48 -6zM536 -28q-66 0 -137 57q-11 10 -11 24q0 26 26 31q50 7 194 79q-8 30 -22 61q-31 58 -34 127q0 21 6 41l-261 -200
q11 -26 11 -59q0 -22 -5 -47q-15 -54 -78 -79q-35 -11 -69 -11q-68 0 -133 43q-13 10 -13 24q0 24 23 31q49 18 186 118l-2 5q-37 65 -37 117q0 46 20 92q-109 -104 -170 -198q-9 -14 -25 -14q-10 0 -18 4q-14 10 -14 27q0 8 5 16q55 86 164 195t210 141l8 1q30 0 30 -30
q0 -17 -14 -26l-19 -14q-53 -41 -87 -98q-28 -49 -28 -95q0 -34 28 -85l437 339q11 7 21 7q14 0 22 -10.5t8 -19.5q0 -15 -13 -26q-35 -27 -82.5 -83t-48.5 -113q7 -52 29 -95q12 -27 21 -58q108 45 195 130q9 9 24 9q11 0 20.5 -8.5t9.5 -23.5q0 -11 -8 -19
q-44 -47 -94.5 -78t-137.5 -75q0 -114 -94 -147q-16 -7 -43 -7z" />
    <glyph glyph-name="tt" unicode="tt" horiz-adv-x="714" 
d="M407 -38q-69 0 -103 73q-7 14 -7 41q0 22 4 52q-133 -133 -226 -133q-70 0 -102 73q-8 16 -8 47q0 8 1.5 36t36.5 115q76 191 304 529q-183 36 -290 36q-78 0 -114 -21q-8 -5 -17 -5q-16 0 -23.5 10.5t-7.5 19.5q0 15 13 25q52 31 158 31q123 0 318 -42l64 92
q10 12 26 12q9 0 17 -5q13 -10 13 -25q0 -9 -6 -18l-49 -69q113 -24 242 -56l89 128q10 12 25 12q9 0 17 -5q14 -10 14 -25q0 -9 -7 -18l-75 -108q98 -22 169 -22q46 0 75.5 9t43 21t15.5 18q1 12 9.5 20t21.5 8q12 0 21 -9t9 -23q0 -20 -21 -45q-51 -60 -176 -60
q-83 0 -196 28q-2 0 -3 1q-50 16 -310 72q-345 -513 -345 -667q0 -37 22 -51q14 -9 28 -9q97 0 279 228q74 163 244 420l63 -17q-304 -462 -304 -604q0 -36 22 -51q13 -9 28 -9q98 0 277 227q11 12 24 12q11 0 19 -7q13 -10 13 -23q0 -10 -8 -19q-199 -250 -327 -250z" />
    <glyph glyph-name="th" unicode="th" horiz-adv-x="964" 
d="M640 658q163 16 273 117q89 83 89 153q0 19 -7 37q-1 0 -1 1t-1 1q-23 29 -54 29q-39 0 -77 -30t-64 -66q0 -1 -1 -1q-89 -131 -157 -241zM69 -2q-71 0 -105 75q-9 16 -9 48q0 9 2 37t38 118q70 177 257 458q-246 151 -394 156q-84 0 -126 -67q-13 -23 -13 -44
q0 -12 4 -23q14 -30 49 -30q32 0 60 30q23 24 26 74q2 30 32 30q30 -2 30 -32q-4 -74 -42 -114q-45 -49 -107 -49q-76 0 -106 70q-8 23 -8 45q0 37 21 74q62 98 182 98q163 -4 426 -165q75 112 124 179q9 13 25 13q27 0 31 -25q0 -15 -5 -24l-121 -174l72 -42
q77 -45 156 -54q75 122 179 275q32 46 80.5 83t105.5 41q65 0 109 -53q7 -9 9 -16q13 -32 13 -64q0 -95 -109 -198q-136 -124 -340 -133q-124 0 -235 65l-74 44q-288 -444 -288 -583q0 -38 24 -53q13 -8 29 -8q99 0 284 232q3 4 7 6q51 104 153 276l67 -10
q-156 -261 -210 -389q256 344 383 344q19 0 36 -6q52 -21 52 -82q0 -60 -80 -208l-29 -57q-35 -68 -35 -91q0 -10 10 -10q48 0 242 203q10 10 22 10t21.5 -9t10.5 -21q0 -13 -9 -23q-117 -124 -197 -184q-51 -39 -92 -39q-22 0 -41 12q-30 21 -30 58q0 55 72 180
q73 133 73 179q0 26 -25 26q-5 0 -19 -2q-43 -10 -132 -99q-114 -123 -201 -242q-69 -91 -84 -103q-12 -9 -26 -9q-32 0 -32 36q0 25 18 76q-123 -116 -211 -116z" />
    <glyph glyph-name="ps" unicode="ps" horiz-adv-x="952" 
d="M112 62q74 0 152 79q-95 -5 -164 -45q-22 -13 -25 -27q6 -7 37 -7zM675 55q25 0 44 7q34 14 40 36q3 16 3 31v9q-78 -48 -134 -77q26 -6 47 -6zM-338 -417q-8 0 -14 2q-18 10 -18 28q0 7 474 906q10 17 27 17q7 0 15 -4q17 -9 17 -26q0 -8 -51 -105q66 59 138 92
q42 20 81 20q28 0 55 -10q67 -34 67 -113q0 -59 -36 -140q85 47 180 146q208 206 282 206q7 0 14.5 -4t11.5 -13t4 -16q0 -14 -14 -25q-2 0 -20 -14q-50 -39 -87 -99q-30 -47 -30 -95q0 -37 30 -90l6 -14q106 67 200 140q10 5 20 5q15 0 23 -10.5t8 -21.5l-1 -8
q-2 -22 -226 -164q7 -20 7 -44q0 -93 -83 -124q-37 -13 -73 -13q-67 0 -132 43q-14 11 -14 27q0 23 23 30q41 12 196 107l-9 17q-38 63 -38 117q0 43 16 85l-69 -67q-62 -64 -127.5 -113.5t-151.5 -76.5q-60 -83 -142 -131q-53 -32 -107 -32q-29 0 -58 9q0 2 -1 2
q-43 20 -43 58q0 21 11 39q20 31 43 42q87 49 194 56q35 4 64 12q28 40 46 85q20 49 20 89q0 8 -2 25.5t-28 29.5q-13 4 -28 4q-60 0 -154.5 -75.5t-169.5 -169.5l-319 -605q-11 -16 -27 -16z" />
    <glyph glyph-name="pr" unicode="pr" horiz-adv-x="1078" 
d="M119 55q77 0 157 84q-84 0 -167 -49q-20 -15 -27 -29q13 -6 37 -6zM615 351q28 32 44 71q10 28 10 42q0 12 -15 15q-10 0 -22 -12q-28 -30 -28 -76q0 -26 11 -40zM-331 -425q-6 0 -14 4q-17 10 -17 29q0 7 3 14l470 891q10 17 27 17q8 0 16 -4q17 -9 17 -27
q0 -9 -50 -104q127 112 218 112q28 0 54 -10q67 -34 67 -113q0 -48 -25 -114q-5 -16 -14 -32q29 11 90 41q42 21 56 30q-25 37 -25 84q0 70 45 117q31 33 66 33q32 0 53 -20q26 -25 26 -59q0 -28 -15 -65q-18 -44 -48 -82q17 -2 32 -2q54 0 108 48q41 36 73 36q21 0 44 -16
q12 -11 12 -24q0 -10 -6 -19q-67 -103 -107 -202q-25 -64 -25 -102q0 -39 27 -39q36 3 95 52t122 148q10 15 27 15q8 0 16 -5q15 -10 15 -26q0 -9 -5 -16q-136 -212 -266 -230h-8q-40 0 -63 26.5t-23 71.5q0 68 53 181q25 51 49 91q-62 -53 -136 -53q-48 0 -85 16
q-24 -18 -51 -31q-129 -65 -194 -79q-61 -85 -142 -134q-54 -32 -108 -32q-29 0 -59 9q-41 20 -45 55q0 23 12 42q18 27 43 44q92 53 182 57l79 14q64 100 64 170q0 7 -2.5 25t-27.5 31q-14 4 -29 4q-61 0 -155 -76.5t-169 -169.5l-319 -604q-10 -18 -28 -18z" />
    <glyph glyph-name=".notdef" horiz-adv-x="0" 
 />
    <glyph glyph-name=".notdef" horiz-adv-x="0" 
 />
    <glyph glyph-name="space" unicode=" " horiz-adv-x="363" 
 />
    <glyph glyph-name="space" unicode="&#xa0;" horiz-adv-x="363" 
 />
    <glyph glyph-name="exclam" unicode="!" horiz-adv-x="207" 
 />
    <glyph glyph-name="quotedbl" unicode="&#x22;" horiz-adv-x="317" 
 />
    <glyph glyph-name="numbersign" unicode="#" horiz-adv-x="771" 
 />
    <glyph glyph-name="dollar" unicode="$" horiz-adv-x="576" 
d="M167 -4q-26 0 -26 25q0 5 2 11q23 65 36 109q-47 5 -79 34q-46 48 -46 114q0 13 6.5 62t49.5 106q41 53 82 53q40 0 40 -28q0 -8 -5 -16q-12 -19 -31 -19q-6 0 -12 2q-9 0 -27 -22q-36 -50 -42 -126q0 -47 30 -79q25 -21 60 -21q32 0 71 17q52 24 96 78q53 63 58 151
q0 47 -26.5 74.5t-71.5 49.5q-35 18 -64 42q-39 32 -39 93q0 86 64.5 181.5t171.5 136.5q22 7 43 7q32 0 59 -18q46 -35 46 -101q0 -91 -91 -155q-27 -20 -42 -20q-27 0 -27 24q0 28 28 35q26 13 51 48q19 26 19 58q0 40 -25 60q-11 10 -27 10q-10 0 -22 -4
q-89 -36 -142 -118q-44 -70 -44 -132q0 -41 26 -61q22 -17 51 -32q50 -23 90 -66q33 -35 33 -103q0 -15 -1 -31q-31 -177 -196 -261q-27 -12 -53 -18q-4 -19 -40 -125q-9 -25 -34 -25z" />
    <glyph glyph-name="percent" unicode="%" horiz-adv-x="616" 
d="M398 256q28 0 41 12.5t13 31.5q0 51 -39 51h-3q-25 0 -36 -11.5t-11 -35.5q0 -22 7 -32.5t14.5 -13t10.5 -2.5h3zM164 674q28 0 41 12.5t13 31.5q0 51 -39 51h-3q-25 0 -36 -11.5t-11 -35.5q0 -22 7 -32.5t14.5 -13t10.5 -2.5h3zM398 192q-32 0 -64 25.5t-34 85.5
q0 53 30 82.5t83 29.5q28 -1 46 -10q56 -29 56 -105q0 -46 -34 -79q-29 -29 -83 -29zM55 21q-14 0 -24 10t-10 24q0 5 9 26l12 25l50 100l41 83l127 248l234 461q10 19 29 19q8 0 16 -4q18 -10 18 -30q0 -8 -3 -16q-442 -864 -467 -922q-10 -24 -32 -24zM164 610
q-32 0 -64 25.5t-34 85.5q0 53 30 82.5t83 29.5q28 -1 46 -10q56 -29 56 -105q0 -46 -34 -79q-29 -29 -83 -29z" />
    <glyph glyph-name="ampersand" unicode="&#x26;" horiz-adv-x="828" 
d="M263 4l-29 1q-178 14 -222 145q-7 25 -7 51q0 52 29 105q66 106 187 182.5t202 110.5q-55 64 -55 118t19 86q33 65 104 106.5t147 41.5q46 0 84 -23q62 -39 62 -103q0 -39 -28 -76q-47 -62 -118 -62q-23 0 -48.5 9t-45 23t-23.5 18q-8 8 -8 19q0 13 11 24t25 11
q10 0 18 -7q11 -11 38 -25q22 -12 46 -12q35 0 59 33q13 17 13 34q0 36 -40 61q-26 16 -55 16q-56 0 -109.5 -30.5t-77.5 -75.5q-12 -24 -12 -49q0 -60 71 -121q8 -7 8 -18q0 -23 -23 -34q-4 0 -52 -22q-269 -123 -346 -257q-21 -38 -21 -74q0 -17 5 -34q42 -112 200 -112
q95 0 192.5 39.5t156.5 111.5q46 57 46 121q0 32 -12 66q-35 7 -66 7q-35 0 -78 -13t-80 -42t-56 -54t-20 -29q-13 -19 -31 -19q-6 0 -11 2q-15 7 -15 23q0 8 4 16l17 24q46 66 124 111q73 41 158 41q42 0 90 -11q20 -4 38 -4q20 0 46 8q61 17 103 71q31 39 31 73
q0 26 -19 41q-17 11 -38 11q-27 0 -61 -17q-9 -5 -17 -5q-24 0 -24 25q0 20 19 32q51 25 93 25q38 0 69 -21q39 -31 39 -81q0 -20 -7 -44q-26 -80 -114 -138q-61 -38 -126 -40q5 -27 5 -51q0 -87 -61 -160q-67 -81 -178 -130t-225 -49z" />
    <glyph glyph-name="quotesingle" unicode="'" horiz-adv-x="155" 
 />
    <glyph glyph-name="parenleft" unicode="(" horiz-adv-x="414" 
 />
    <glyph glyph-name="parenright" unicode=")" horiz-adv-x="410" 
 />
    <glyph glyph-name="asterisk" unicode="*" horiz-adv-x="330" 
 />
    <glyph glyph-name="plus" unicode="+" horiz-adv-x="647" 
 />
    <glyph glyph-name="comma" unicode="," horiz-adv-x="142" 
 />
    <glyph glyph-name="hyphen" unicode="-" horiz-adv-x="501" 
 />
    <glyph glyph-name="hyphen" unicode="&#xad;" horiz-adv-x="501" 
 />
    <glyph glyph-name="period" unicode="." horiz-adv-x="166" 
 />
    <glyph glyph-name="slash" unicode="/" horiz-adv-x="367" 
 />
    <glyph glyph-name="zero" unicode="0" horiz-adv-x="586" 
d="M163 62q111 0 183 102t126 258q47 117 65 228q3 16 3 33q0 21 -5 53t-29 63t-73 31q-125 -7 -207 -149q-107 -185 -139 -319q-24 -88 -24 -151q0 -34 9.5 -86t79.5 -63h11zM160 1l-23 1q-135 17 -135 194q0 209 173 511q115 180 266 183q95 -3 132 -74q28 -54 28 -121
q0 -20 -3 -42q-19 -121 -69 -243q-57 -161 -122 -257q-102 -152 -247 -152z" />
    <glyph glyph-name="one" unicode="1" horiz-adv-x="302" 
d="M28 2h-6q-20 5 -20 26q0 5 280 742l-123 -113q-11 -9 -26 -9q-23 0 -23 33q1 7 11 17l212 194q11 9 23 9q7 0 14 -3q12 -8 12 -21q0 -7 -321 -851q-9 -24 -33 -24z" />
    <glyph glyph-name="two" unicode="2" horiz-adv-x="625" 
d="M479 2q-51 2 -125.5 2.5t-148.5 0t-124 -1.5t-54 -1q-13 0 -18.5 8.5t-5.5 16.5l1 10q25 88 103.5 164.5t252.5 185.5q127 84 173 173q38 73 38 129q0 13 -2 24q-21 102 -100 102q-86 -3 -138.5 -35.5t-74.5 -63.5q-50 -61 -50 -112q0 -23 21 -23q6 0 18 2.5t20 6.5t14 4
q25 0 25 -27q0 -25 -41 -38q-23 -8 -46 -8q-69 0 -69 73q0 72 66 157q19 24 54.5 52.5t87.5 50t123 21.5q118 0 148 -144q3 -16 3 -32q0 -199 -246 -362q-154 -97 -222 -159t-89 -115q163 2 252 2q96 0 166 -3q23 -2 23 -25q0 -16 -13 -27q-10 -8 -22 -8z" />
    <glyph glyph-name="three" unicode="3" horiz-adv-x="688" 
d="M182 -1q-54 0 -103.5 32t-66.5 94q-5 14 -5 34q0 26 12.5 75t94.5 133q10 9 23 9q11 0 17 -8t6 -18q0 -13 -11 -24q-85 -83 -85 -152q0 -57 52 -90q36 -24 76 -25q255 0 343 259q22 68 22 119q0 134 -152 134q-11 0 -24.5 -1.5t-15.5 -2t-4 -0.5q-24 0 -24 26q0 16 15 28
l262 195q-102 5 -172 5q-133 0 -152 -19q3 -6 6 -9q7 -8 7 -18q0 -14 -10 -24.5t-25 -10.5q-12 0 -23.5 16t-11.5 38q0 38 44 65q53 23 195 23q77 0 181 -7q28 -2 46 -2q9 0 14 -3q13 -7 13 -21q0 -23 -21 -33l-251 -187q69 -4 123 -62q37 -47 37 -120q0 -61 -25 -139
q-47 -146 -154 -227.5t-253 -81.5z" />
    <glyph glyph-name="four" unicode="4" horiz-adv-x="735" 
d="M215 349q133 23 261 26l128 332q-205 -209 -389 -358zM370 0l-8 1q-18 6 -18 24q0 6 3 14l32.5 84l73.5 191q-171 -8 -349 -46q-46 -29 -67 -29q-9 0 -14 2q-23 7 -23 27q0 10 7 20q11 19 80 35q77 48 286 237q272 256 294 312q10 24 32 24q19 0 26 -18q1 -3 1 -8
q0 -14 -11 -32l-178 -465q63 -4 94 -24q10 -6 11 -18q0 -12 -8 -23q-11 -15 -28 -15q-8 0 -15 5q-23 14 -76 16l-113 -291q-8 -23 -32 -23z" />
    <glyph glyph-name="five" unicode="5" horiz-adv-x="660" 
d="M188 -3q-126 6 -174 117q-11 30 -11 61q0 76 64 155q12 14 27 14q24 0 25 -24q1 -12 -7 -23q-48 -61 -48 -114q0 -65 57 -102q35 -23 78 -24q219 7 285 278q11 52 11 91q0 120 -114 120q-37 0 -73.5 -9t-62.5 -19t-28 -11q-8 -3 -14 -3q-10 0 -18 7t-8 18q0 6 123 331
q9 24 32 24q20 0 26 -19q5 -13 77 -13t186 6l63 2q12 0 18.5 -7.5t6.5 -18.5q0 -13 -10.5 -23t-23.5 -11q-33 -1 -61 -3q-94 -6 -158 -6q-84 0 -117 10l-82 -218q68 24 137 24q57 0 104 -31q58 -44 58 -142q0 -46 -12 -103q-81 -324 -356 -334z" />
    <glyph glyph-name="six" unicode="6" horiz-adv-x="633" 
d="M196 7q-108 0 -163 102q-25 47 -25 117q0 198 172 461q156 215 338 215q79 0 113 -49q22 -34 22 -77q0 -106 -48 -106q-24 1 -24 25q0 4 4 22q6 22 6 46q0 78 -79 78q-116 0 -211 -96q-89 -90 -145 -206q-87 -183 -87 -300q0 -54 25 -105q33 -66 113 -66q61 0 128 47
q115 84 143 222q3 18 3 34q0 43 -24 71q-43 50 -127 50q-91 0 -147 -55q-11 -11 -26 -11q-9 0 -17 6.5t-8 17.5q0 13 10 24q54 54 136 71q33 7 65 7q47 0 91 -16q108 -45 108 -156q0 -21 -4 -44q-34 -167 -173 -268q-86 -60 -169 -61z" />
    <glyph glyph-name="seven" unicode="7" horiz-adv-x="511" 
d="M24 -7q-10 0 -17 7.5t-7 20.5q0 90 289 481l232 305q-86 -14 -202 -14q-98 0 -145 7q-21 4 -21 25q4 35 33 35q4 0 48 -3t124 -3q143 0 230 29q7 2 12 2q12 0 19 -11q4 -7 4 -15q0 -10 -8 -21q-6 -6 -89 -113q-318 -406 -426 -599q-42 -75 -42 -97q0 -13 -9 -24.5
t-25 -11.5z" />
    <glyph glyph-name="eight" unicode="8" horiz-adv-x="541" 
d="M195 4h-7q-95 0 -145 64q-23 26 -34 79q-5 20 -5 44q0 41 13 95q19 74 53 121.5t62.5 71t32.5 24.5q9 5 18 5q15 0 22 -13q2 -6 2 -12q0 -19 -17 -29l-25 -20q-63 -54 -89 -152q-11 -43 -11 -79q0 -57 28 -94q37 -45 104 -45q161 1 211 230q2 12 2 23q0 43 -33.5 84
t-87 83.5t-92.5 91.5q-32 40 -32 89q0 11 2 23q17 83 79 139q90 79 191 79q102 0 146 -94q11 -28 11 -63q0 -36 -19 -99.5t-112 -144.5q-11 -8 -23 -8t-18.5 8t-6.5 16q0 16 13 28q105 89 105 190q0 24 -7 43q-17 38 -43.5 51.5t-53.5 13.5q-76 -2 -142 -60
q-57 -49 -61 -112q0 -34 30.5 -69t77.5 -73q59 -47 104 -105q33 -44 33 -100q0 -18 -3 -37q-73 -287 -273 -287z" />
    <glyph glyph-name="nine" unicode="9" horiz-adv-x="543" 
d="M144 0q-143 0 -143 142q0 83 43 83q25 -1 25 -26q0 -4 -1 -6q-6 -17 -6 -46q0 -87 93 -87q155 0 272 188q51 84 83 174q52 146 52 241q0 64 -29 116q-35 62 -110 62q-65 0 -137 -53q-110 -88 -132 -227l-1 -24q0 -50 26.5 -77.5t57.5 -36t64 -8.5q98 0 155 62
q11 12 27 12q9 0 17 -6.5t8 -18.5t-9 -22q-52 -57 -133 -78q-39 -10 -77 -10q-41 0 -81 12q-117 42 -117 161q0 15 2 32q26 167 161 274q91 69 179 69q101 0 157 -93q33 -54 33 -138q0 -132 -83 -330q-57 -135 -155 -235.5t-241 -105.5z" />
    <glyph glyph-name="colon" unicode=":" horiz-adv-x="217" 
d="M127 230q-27 0 -37 24q-5 9 -5 18q0 7 10 33q5 17 21 24q9 5 18 5q7 0 14 -3q28 -11 28 -40q0 -7 -10 -34t-39 -27zM65 43q-7 0 -14 3q-29 10 -29 39q0 7 10 34q5 16 21 23q9 5 18 5q7 0 14 -3q28 -9 28 -40q0 -7 -9 -32q-10 -29 -39 -29z" />
    <glyph glyph-name="semicolon" unicode=";" horiz-adv-x="217" 
d="M127 230q-27 0 -37 24q-5 9 -5 18q0 7 10 33q5 17 21 24q9 5 18 5q7 0 14 -3q28 -11 28 -40q0 -7 -10 -34t-39 -27zM64 43q-7 0 -13 3q-29 10 -29 39q0 7 10 34q5 16 21 23q9 5 18 5q7 0 14 -3q28 -9 28 -40q0 -7 -9 -32q-11 -29 -40 -29z" />
    <glyph glyph-name="semicolon" unicode="&#x37e;" horiz-adv-x="217" 
d="M127 230q-27 0 -37 24q-5 9 -5 18q0 7 10 33q5 17 21 24q9 5 18 5q7 0 14 -3q28 -11 28 -40q0 -7 -10 -34t-39 -27zM64 43q-7 0 -13 3q-29 10 -29 39q0 7 10 34q5 16 21 23q9 5 18 5q7 0 14 -3q28 -9 28 -40q0 -7 -9 -32q-11 -29 -40 -29z" />
    <glyph glyph-name="less" unicode="&#x3c;" horiz-adv-x="544" 
d="M411 -8q-12 0 -23 8l-363 327q-12 11 -12 27q2 16 14 25l426 315q10 6 20 6q2 0 10 -1t15.5 -11.5t7.5 -20.5q0 -16 -13 -27l-393 -290l333 -300q11 -11 11 -26q0 -11 -8 -21q-12 -11 -25 -11z" />
    <glyph glyph-name="equal" unicode="=" horiz-adv-x="580" 
d="M475 182h-399q-9 0 -15.5 9.5t-6.5 23.5t6.5 24t15.5 10h399q9 0 15.5 -10t6.5 -24t-6.5 -23.5t-15.5 -9.5zM475 373h-399q-9 0 -15.5 10t-6.5 24t6.5 23.5t15.5 9.5h399q9 0 15.5 -9.5t6.5 -23.5t-6.5 -24t-15.5 -10z" />
    <glyph glyph-name="greater" unicode="&#x3e;" horiz-adv-x="561" 
d="M109 -8q-14 0 -23.5 10.5t-9.5 21.5v9q0 7 11 17l333 300l-393 290q-13 11 -13 27q0 10 6 20q11 13 27 13q11 0 20 -6l426 -315q13 -10 13 -27q0 -15 -11 -25l-363 -327q-11 -8 -23 -8z" />
    <glyph glyph-name="question" unicode="?" horiz-adv-x="485" 
d="M135 -7h-7q-11 0 -20 7q-13 11 -13 33q0 10 1 36t23 81q53 136 255 243q72 34 131 83q68 57 68 147q0 97 -55 158q-50 53 -141 53h-9q-58 -2 -102 -27q-74 -44 -118 -114q-15 -25 -15 -27q-11 -19 -29 -19q-8 0 -16 4q-18 9 -18 29q0 13 23 50q18 30 55 69q92 97 218 102
h9q120 0 192 -74q73 -81 73 -205l-1 -28q-15 -108 -92.5 -170t-141.5 -91q-243 -128 -243 -297l1 -10q0 -27 -28 -33zM109 -256q-16 0 -27 13q-7 9 -7 20l10 95q2 14 12 21.5t23 7.5q16 0 25 -13q7 -9 7 -21l-11 -93q-1 -13 -10.5 -21t-21.5 -9z" />
    <glyph glyph-name="at" unicode="@" horiz-adv-x="1152" 
d="M487 289q56 0 127 52t133 124q-30 39 -79 39q-38 0 -96 -32q-45 -29 -78.5 -81t-35.5 -88q0 -11 4 -12q12 -2 25 -2zM306 2q-55 0 -100 28q-57 41 -57 141q0 208 164 408q178 205 411 248q51 8 94 8q111 0 171 -54t60 -155q0 -109 -78 -242q-66 -111 -156 -171
q-47 -28 -87 -28q-76 0 -77 57q0 29 17 70q-55 -45 -115 -69q-37 -16 -74 -16q-21 0 -43 6q-38 12 -39 60q3 57 47 124.5t103 104.5q78 43 130 43q16 0 52.5 -10t59.5 -39q14 16 19 25q12 15 29 15q26 0 26 -26q0 -9 -7 -19q-55 -69 -109 -166q-36 -67 -36 -91v-3
q12 -6 26 -6q24 0 52 18q69 45 128 141q71 116 71 211q0 160 -179 160q-38 0 -85 -8q-207 -38 -366 -221q-147 -179 -147 -363q0 -77 36 -103q29 -18 69 -18q9 0 40.5 3t88 16.5t102.5 15.5q46 -1 94.5 -14.5t98.5 -13.5q15 0 55.5 4t117.5 85q13 12 27 12q9 0 17 -7t8 -19
t-9 -22q-100 -103 -186 -111q-22 -2 -43 -2q-61 0 -109 15q-44 12 -80 13q-37 -2 -91 -15q-73 -20 -141 -20z" />
    <glyph glyph-name="A" unicode="A" 
d="M1160 244q92 271 356 875l-485 -572q83 -121 129 -303zM296 -28q-245 0 -288 229q-3 27 -3 53q0 202 204 349q119 77 214 77q67 0 123 -38q68 -55 68 -147q0 -47 -18 -103q-72 -199 -263 -199q-28 0 -32 2q-25 6 -25 28q0 33 36 33q5 -1 34 -1q24 0 59.5 11t71.5 45
t61 101q15 46 15 82q0 64 -44 99q-39 25 -86 25q-78 0 -179 -66q-178 -128 -178 -298q0 -21 3 -43q24 -127 122 -161q48 -15 97 -15q112 0 253.5 99.5t409.5 414.5l-1 2q-73 86 -157 86l-18 -1q-35 0 -35 30q0 27 28 31l25 1q109 0 199 -101l250 293l315 371l-18 -4
q-101 -28 -251 -34q-179 0 -294 106q-9 9 -9 24q0 11 8.5 20t21.5 9t22 -8q105 -90 234 -90q7 0 79.5 2.5t175.5 31.5q51 12 80 15q31 0 44 -12q2 -1 3 -2.5t1.5 -3t1.5 -2.5t2 -3v-1q0 -6 2 -6l-2 -17h-1q-83 -182 -250 -581q-202 -493 -222 -585q5 -31 5 -51
q0 -62 -38 -62q-16 0 -28.5 11t-12.5 35t11 69q-10 73 -42.5 178t-90.5 198q-234 -272 -392 -399t-301 -127z" />
    <glyph glyph-name="B" unicode="B" horiz-adv-x="1301" 
d="M230 56q71 0 144 48q-189 89 -272 217q-25 -65 -25 -123q0 -98 80 -130q36 -12 73 -12zM227 -7q-46 0 -93 18q-118 47 -118 188q0 24 8 70t28.5 94.5t24.5 53.5q10 16 27 16q25 0 30 -26q35 -142 296 -261q219 191 451 633q67 125 92 144q-202 32 -236 49q-13 10 -13 25
q0 9 5 18q9 14 24 14q7 0 14 -4q15 -4 68.5 -15t119.5 -22t117 -16q29 7 52 7q51 -2 51 -35q0 -35 -62 -35q-14 0 -34 2q-42 -9 -76 -44q-13 -19 -69 -118q-73 -137 -186.5 -317t-253.5 -312q171 -63 325 -63q169 0 244 95q71 99 71 193q0 25 -5 49q-24 102 -108 178
q-11 -2 -20 -2q-32 0 -48 22q-7 9 -7 27q0 15 11 36q10 16 27 16q9 0 15 -3.5t40 -29.5q50 17 118.5 62.5t115.5 113.5q34 52 34 100q0 49 -36 94q-144 164 -401 164q-30 0 -61 -2q-91 -4 -218.5 -67.5t-222.5 -239.5q-54 -109 -54 -187q0 -51 21.5 -87.5t52.5 -57t63 -30.5
t53.5 -13.5t22.5 -3.5q13 -1 21 -10t8 -22q-1 -13 -10.5 -21t-23.5 -8q-8 0 -50.5 8t-97 37t-91.5 88q-30 53 -30 119q0 94 60 216q155 301 490 340q34 2 65 2q287 0 451 -187q49 -65 49 -133q0 -94 -93 -193q-84 -83 -187 -128q69 -67 100 -186q7 -31 7 -63
q0 -112 -82 -227q-94 -119 -295 -119q-98 0 -221 28q-79 19 -157 51q-104 -80 -213 -83z" />
    <glyph glyph-name="C" unicode="C" horiz-adv-x="1186" 
d="M1001 803q135 0 199 87q39 65 39 133q0 10 -4 55t-34 80q-36 38 -110 38q-29 0 -63 -6q-53 -4 -165.5 -65t-238.5 -229q54 -15 112 -36q156 -57 265 -57zM661 0q-51 0 -103 10q-95 18 -154 114q-53 97 -53 216q0 99 36 212q62 179 136 301q-49 8 -93 8q-110 0 -194 -46
q-71 -41 -110 -94t-54 -93t-15 -45q-3 -12 -14 -19q-7 -5 -16 -5q-18 0 -26 15q-5 7 -5 15q2 19 18 63q52 136 192 217q98 53 225 53q61 0 128 -12q140 195 269 265.5t188 75.5q39 6 73 6q104 0 159 -59q48 -56 53 -175q0 -87 -50 -168q-45 -75 -169 -107q-34 -9 -77 -9
q-114 0 -290 63q-66 25 -127 39q-78 -122 -142 -309q-33 -103 -33 -191q0 -103 45 -185q43 -73 110 -85q45 -9 91 -9q228 0 489 229q10 7 20 7q14 0 22.5 -10t8.5 -20q0 -14 -10 -24q-275 -244 -528 -244z" />
    <glyph glyph-name="D" unicode="D" horiz-adv-x="1583" 
d="M193 51q93 0 228 128q-26 20 -50 43q-131 126 -208 126q-35 0 -63.5 -22t-38.5 -59.5t-10 -69.5q0 -104 100 -139q20 -7 42 -7zM191 -11q-32 0 -61 10q-140 54 -140 198q0 134 84 187q41 26 88 26q104 0 252 -144q24 -23 51 -42q201 215 417 564q68 110 95 133
q-208 32 -239 50q-14 9 -14 24q0 10 6 19q10 13 25 13q7 0 14 -3q14 -4 68.5 -15t121 -22t118.5 -16q29 6 52 6q50 0 50 -33q0 -23 -18 -30t-49 -7l-28 1q-43 -9 -77 -44q-19 -24 -73 -109q-248 -392 -415 -565q38 -20 78 -32q159 -46 290 -46q252 0 399 170
q114 143 114 335q0 143 -67 277q-146 262 -448 262l-45 -1q-261 -29 -400 -143q-184 -150 -184 -323q0 -77 50 -119q32 -22 72 -22q19 0 62 10t101.5 44.5t90.5 61.5q8 7 19 7q15 0 23 -10t8 -20q0 -15 -11 -24q-5 -5 -46 -34q-133 -96 -251 -96q-56 0 -105 34
q-75 61 -75 168q0 199 203 369q153 127 437 158q26 2 52 2q338 0 502 -295q74 -147 74 -304q0 -26 -8.5 -131.5t-119.5 -245.5q-49 -65 -158 -126.5t-294 -66.5q-132 0 -303 50q-55 16 -105 45q-162 -155 -283 -155z" />
    <glyph glyph-name="E" unicode="E" horiz-adv-x="1084" 
d="M877 906q40 0 99 20.5t97 84.5q22 36 22 74q0 37 -32 67q-60 48 -135 48q-31 0 -64 -8q-131 -37 -181 -156q-7 -21 -7 -45q0 -15 3 -32q39 -13 75 -28q67 -25 123 -25zM530 8q-183 0 -287 142q-65 96 -65 213q0 244 195 341q105 52 245 52q35 0 71 -3q-37 65 -63 158
q-158 47 -301 47q-114 0 -189 -44q-68 -41 -75 -122q-2 -29 -30 -29q-31 1 -31 32q10 114 103 172q90 52 219 52q7 0 79.5 -1t213.5 -40v15q0 35 11 65q62 149 222 194q42 10 81 10q97 0 174 -63q54 -51 54 -115q0 -49 -31 -105q-49 -81 -153 -119q-44 -16 -94 -16
q-68 0 -148 30l-33 12q27 -77 76 -155q5 -8 5 -17q0 -8 -5 -17q-9 -13 -25 -13h-6q-61 11 -119 11q-92 0 -204.5 -35.5t-159.5 -170.5q-19 -67 -19 -126q0 -99 53 -178q83 -114 228 -114q148 0 241.5 64.5t126.5 154.5q20 51 20 96q0 7 -2.5 36.5t-32.5 55.5q-51 41 -115 41
q-12 0 -32.5 -2.5t-39 -9.5t-19.5 -8q-8 -4 -15 -4q-17 0 -27 16q-3 7 -3 14q0 20 16 28q3 2 28 12q43 17 93 17q28 0 67 -9t87 -48q56 -54 56 -138q0 -174 -164 -297q-104 -78 -277 -82z" />
    <glyph glyph-name="F" unicode="F" horiz-adv-x="795" 
d="M212 11q-19 0 -37 4q-94 19 -137 92q-31 57 -31 126q0 40 6.5 74t8.5 39q8 22 29 22q5 0 10 -2q22 -7 22 -29q0 -5 -6 -29q-8 -33 -8 -67q0 -20 3 -47q12 -98 116 -119q11 -2 22 -2q77 0 165.5 88.5t177.5 235t159 290.5l-69 4q-13 -25 -40.5 -59t-70 -61t-101.5 -27
q-123 0 -177 118q-21 56 -21 118q0 148 122 327q166 226 463 226q171 0 385 -75q101 -34 172 -34q2 0 40 1t84 21t67.5 40t21.5 22q10 13 26 13q10 0 18 -6q13 -10 13 -25q0 -9 -6 -18q-2 -5 -29 -30q-84 -80 -234 -80q-82 0 -194 38q-127 46 -270 65q-45 6 -89 6
q-96 0 -208 -34.5t-209 -165.5q-87 -127 -104 -226q-6 -40 -6 -73q0 -50 15 -85q36 -81 116 -81q35 0 67 16q56 29 91 92q12 21 12 23q10 19 28 19q8 0 15 -4l3 1q2 0 3 -0.5t27.5 -2t68.5 -1.5l71 150q52 114 75 144q-84 1 -155.5 6t-86.5 11q-17 9 -17 28q0 6 2 13
q10 17 29 17q38 -5 79 -7q92 -6 166 -6q42 0 76 1q41 15 70 15q35 0 36 -34q-2 -19 -15 -26q-22 -13 -76 -16q-41 -15 -69 -54q-16 -27 -58 -118l-58 -124q165 0 215 42q9 18 28 18q7 0 13 -3q18 -9 18 -28q0 -6 -3 -13q-29 -78 -301 -78q-86 -181 -199 -361
q-203 -315 -370 -315z" />
    <glyph glyph-name="G" unicode="G" horiz-adv-x="1096" 
d="M1019 766q16 0 63 5.5t114 123.5q18 32 18 57q0 20 -11 36q-42 51 -146 51q-223 0 -422 -194q114 -21 201 -45q110 -34 183 -34zM414 -346q101 0 312 348q-29 5 -60 5q-93 0 -182.5 -41t-137.5 -109q-29 -42 -29 -84t31 -84q27 -35 58 -35h8zM405 -408q-61 0 -105.5 60
t-44.5 121q0 59 39 118q72 100 204 148q83 29 165 29q48 0 96 -10q37 61 107 200q-102 -80 -180 -82h-16q-66 0 -96 15q-105 45 -150 153q-25 60 -25 126q0 51 15 105q39 129 104 223q-45 4 -83 4q-179 0 -275 -91q-45 -45 -65 -94t-24.5 -86t-4.5 -44q0 -13 -9 -22t-22 -9
t-22 9t-9 22q0 14 6 58.5t30 101t77 108.5q114 109 319 109q44 0 125 -8q92 107 201 165q149 80 294 80q138 0 198 -78q22 -26 22 -72q0 -37 -26 -86q-87 -148 -191 -158q-18 -2 -38 -2q-90 0 -201 35q-98 28 -232 50q-73 -95 -115 -232q-12 -44 -12 -85q0 -53 27.5 -121
t108.5 -103q34 -11 68 -11q173 0 333 301q9 17 27 17q7 0 13 -3q19 -9 19 -28q0 -8 -66 -151q-80 -174 -172 -337q157 -74 180 -285q0 -13 -8 -23t-22 -10q-11 0 -20.5 7.5t-10.5 20.5q-23 187 -150 236q-230 -391 -383 -391z" />
    <glyph glyph-name="H" unicode="H" horiz-adv-x="1381" 
d="M1060 184q76 175 187 348q-120 16 -316 61q52 -64 79.5 -164.5t49.5 -244.5zM1053 0q-11 0 -19.5 7.5t-10.5 18.5q-8 45 -14 86q-29 191 -60.5 305t-100.5 170q-181 -265 -314 -404.5t-270 -140.5q-31 0 -64 7q-110 29 -155 114q-32 63 -32 130q0 24 4 49q27 121 112 121
q36 0 36 -32v-3q-6 -26 -30 -26h-7q-18 0 -32 -21q-21 -35 -21 -87q0 -43 23.5 -101.5t114.5 -82.5q24 -5 48 -5q107 0 226.5 119t308.5 396q-22 10 -47.5 17.5l-50 15t-24.5 28.5q4 32 31 32q8 0 132 -34q188 271 280 351q-40 13 -86 30q-199 81 -346 81q-50 0 -103 -7
q-176 -35 -242 -186q-41 -93 -41 -180q0 -104 48 -139q24 -15 47 -15q42 0 90 41q30 25 48.5 48t19.5 25q11 13 27 13q9 0 16 -5q14 -10 14 -25q0 -9 -4.5 -16.5t-29.5 -37.5t-66 -61.5t-92 -41.5q-12 -3 -24 -3q-39 0 -80 27q-51 35 -68 116q-8 37 -8 78q0 48 11 101
q68 272 325 322q59 8 113 8q155 0 367 -85q70 -27 123 -41q42 26 71 26q26 0 44.5 -17t18.5 -35q0 -19 -17 -27q-32 -15 -69 -15q-16 0 -34 3q-76 -46 -278 -334q-8 -10 -10 -14q225 -55 381 -75q173 267 346 473q135 162 211 198q6 2 11 2q7 0 15 -4q17 -7 17 -28
q0 -20 -21 -28q-55 -25 -180 -172q-165 -195 -329 -447h17q35 0 49 7q7 4 15 4q19 0 27 -17q4 -7 4 -15q0 -41 -95 -41q-23 0 -55 3q-230 -366 -231 -491q0 -13 -8 -23t-23 -10z" />
    <glyph glyph-name="I" unicode="I" horiz-adv-x="770" 
d="M223 1q-32 0 -66 7q-155 41 -155 197q0 23 5 47q13 71 56 121q37 46 88 46q39 0 39 -33q0 -14 -13 -23q-8 -6 -18 -6h-8q-25 0 -49 -32.5t-34 -83.5q-4 -14 -4 -35q0 -9 1.5 -31.5t24 -57t81.5 -49.5q25 -6 50 -6q116 0 247.5 146.5t317.5 544.5q130 277 247 400l-80 3
q-50 5 -109 5q-122 0 -283 -21q-173 -33 -242 -187q-42 -96 -42 -187q0 -108 49 -143q21 -15 44 -15q8 0 17 2q48 12 88 51t55 63q10 13 25 13q9 0 18 -5q13 -9 13 -25q0 -9 -5 -18q-2 -4 -27 -34q-88 -109 -183 -109q-43 0 -80 26q-51 37 -68 120q-8 37 -8 78q0 50 12 106
q69 275 324 325q167 22 293 22q61 0 110.5 -4t90.5 -4q35 0 64 2q45 28 82 28q46 0 48 -33q0 -19 -17 -28q-41 -21 -89 -27q-122 -76 -291 -431q-155 -337 -302.5 -529.5t-316.5 -195.5z" />
    <glyph glyph-name="J" unicode="J" horiz-adv-x="976" 
d="M237 -160q-29 0 -58 6q-104 26 -144 95q-29 53 -29 107q0 19 3 37q12 64 49 99q33 31 74 31q39 0 39 -33q0 -15 -12 -23q-8 -6 -18 -6h-8q-22 0 -39 -23q-26 -34 -26 -81q0 -112 124 -142q23 -6 48 -6q129 0 330 174.5t454 680.5q132 269 282 392l-122 1q-48 3 -100 3
q-143 0 -320 -22q-103 -19 -149 -75.5t-56 -115.5q-7 -41 -7 -80q0 -55 20 -125.5t65 -102.5q20 -12 41 -12q69 0 156 106q21 25 22 28q11 13 26 13q9 0 17 -5q14 -10 14 -25q0 -9 -4.5 -16.5t-31.5 -40.5t-71 -69t-97 -50q-15 -4 -31 -4q-37 0 -75 23q-65 46 -95 155
q-18 63 -18 127q0 45 9 91q46 203 256 239q183 23 330 23q53 0 98.5 -2.5t84.5 -2.5q88 0 150 11q44 17 61 18q9 0 16 -6q13 -8 13 -24q0 -7 -3 -16q-7 -16 -65 -31q-55 -20 -152 -116t-208 -316q-230 -470 -476 -704q-196 -184 -367 -185z" />
    <glyph glyph-name="K" unicode="K" horiz-adv-x="1299" 
d="M1360 -295l-8 1q-196 59 -252.5 175t-65.5 240q-9 115 -53 198q-65 95 -140 126t-113 31q-123 -225 -245.5 -350.5t-263.5 -125.5q-32 0 -65 7q-156 37 -156 188q0 19 4 39q13 69 55 119q39 44 91 44q38 0 38 -31q-1 -30 -32 -30h-6q-26 0 -51 -31q-37 -48 -37 -109
q0 -11 2.5 -34t25.5 -52.5t79 -42.5q25 -6 50 -6q116 0 248 138.5t317 513.5q129 259 245 376q-37 0 -77 2q-52 5 -112 5q-122 0 -281 -20q-178 -33 -245 -182q-39 -88 -39 -169q0 -30 10 -72q18 -76 86 -76q41 0 89 39q31 24 49.5 46t19.5 24q10 13 25 13q9 0 18 -5
q13 -10 13 -25q0 -10 -6 -18q-3 -5 -28 -34t-66 -59q-58 -43 -116 -43q-39 0 -79 24q-50 34 -68 111q-9 36 -9 76q0 45 11 94q65 269 325 317q167 21 293 21q61 0 111.5 -4t92.5 -4q33 0 61 2q46 27 83 27q44 0 48 -33q-1 -19 -18 -28q-42 -20 -92 -26q-119 -71 -288 -406
l-62 -121q144 79 386.5 259l450.5 348q10 7 20 7q13 0 22 -10.5t9 -20.5q0 -14 -12 -24l-190 -150q-420 -330 -642 -454q127 -38 214 -168q53 -101 62 -221t57 -218t215 -147q22 -7 22 -30q-4 -31 -30 -31z" />
    <glyph glyph-name="L" unicode="L" horiz-adv-x="951" 
d="M153 58q88 0 210 126q-79 27 -141 27q-54 0 -92.5 -14.5t-55.5 -35.5q-15 -16 -15 -33t17 -35q32 -35 77 -35zM628 467q186 6 356.5 119.5t218.5 295.5q13 64 13 106q0 21 -6.5 52t-29.5 46t-44 19q-4 2 -18 2q-68 0 -154 -74q-127 -110 -259 -405q-37 -85 -77 -161z
M1149 -183q-128 4 -305 87t-344 204q-40 29 -78 49q-143 -161 -269 -161q-71 0 -122 54q-34 39 -34 78q0 37 30 74q45 52 146 68q23 4 48 4q83 0 185 -41q60 73 123 181q-191 41 -220 222q-2 20 -2 38q0 87 46.5 162.5t122.5 131t138 84.5q70 33 82 33q6 0 15 -4
q15 -7 15 -27q0 -23 -20 -29q-4 -1 -59 -26q-158 -73 -238 -192q-40 -59 -40 -132q0 -15 2 -31q27 -154 190 -173q43 81 87 181q91 204 174 313.5t151 153t114 48.5l32 2q20 0 32 -4q85 -13 118 -109q8 -28 8 -68q0 -284 -274 -463q-192 -119 -391 -119h-17
q-65 -115 -132 -201q36 -20 73 -47q238 -169 427 -237q117 -42 186 -42q42 0 66 16q8 6 18 6q15 0 23 -10.5t8 -19.5q0 -16 -12 -25q-39 -29 -103 -29z" />
    <glyph glyph-name="M" unicode="M" horiz-adv-x="1886" 
d="M1763 -309q-5 0 -10 2q-183 65 -183 297q0 86 39.5 232.5t133 338.5t172.5 333q40 73 65 123q-19 -5 -53 -27q-176 -120 -467 -520q-162 -228 -235 -360q-15 -67 -26 -96q-9 -18 -17.5 -26t-23.5 -8q-20 0 -31 15q-7 9 -7 22q0 31 47 116q31 144 72 427q41 300 49 440
q-168 -318 -523 -731q-237 -269 -453 -272q-58 0 -110 21q-187 91 -187 323v17q17 187 175 348q151 144 294 152q149 0 156 -179q0 -73 -30 -134.5t-78.5 -105.5t-87 -65.5t-41.5 -21.5q-6 -2 -12 -2t-15 3q-16 8 -16 28t19 28q5 1 37.5 19.5t72.5 54.5q89 80 89 194
q0 119 -90 119q-112 0 -254 -134q-134 -128 -157 -308v-15q0 -191 148 -264q44 -16 90 -16q181 0 404 250q222 261 351 456.5t177 290.5q-6 -2 -11 -5q-187 -89 -344 -94q-104 0 -205 58q-15 9 -15 26q0 8 5 16q11 15 27 15q9 0 16 -5q87 -49 178 -49q41 0 129 21t184 69
q69 33 100 33q8 0 14 -2q17 -9 20 -21q7 -13 7 -61q0 -39 -6 -116q-24 -283 -87 -656q102 160 226 322q361 476 518 476q52 0 52 -36q0 -7 -4 -20q-6 -24 -82 -163q-225 -398 -307 -684q-30 -104 -30 -190q0 -66 18 -122q32 -85 123 -117q21 -8 21 -29q0 -5 -2 -11
q-10 -20 -29 -20z" />
    <glyph glyph-name="N" unicode="N" horiz-adv-x="1428" 
d="M233 -49q-24 0 -46 3q-152 27 -180 195q-4 29 -4 58q0 113 63 236.5t175.5 226.5t223.5 142q49 16 90 16q90 0 134 -77q25 -51 25 -97q0 -23 -13 -67.5t-58.5 -95t-87.5 -80.5t-49.5 -33.5t-14.5 -3.5q-18 0 -27 16q-4 7 -4 15q0 17 15 27q3 1 37 25q100 69 132 157
q7 20 7 41q0 32 -17 67q-26 44 -81 44q-35 0 -68 -13q-99 -34 -201.5 -127.5t-166.5 -217.5q-52 -100 -52 -202q0 -24 3 -48q23 -145 165 -145q145 0 349.5 148t360.5 440q210 415 234 480q-104 -47 -195.5 -79.5t-193.5 -32.5q-105 0 -207 58q-15 9 -15 25q0 9 6 18
q9 14 26 14q8 0 16 -5q87 -49 180 -49q42 0 132.5 21t188.5 70q64 31 109 34q11 0 21.5 -7.5t10.5 -23.5q0 -6 -1 -13.5t-2 -13.5q-19 -436 -44 -777q186 409 376 674q129 179 247 220l8 1q8 0 17 -5q14 -8 14 -26q0 -23 -23 -30q-161 -53 -431 -551q-163 -313 -227 -490
q-10 -73 -19.5 -95.5t-32.5 -22.5q-11 0 -21 6q-13 8 -13 27q0 29 25 98q22 169 55 821l-185 -374q-156 -293 -372.5 -456.5t-393.5 -165.5z" />
    <glyph glyph-name="O" unicode="O" horiz-adv-x="866" 
d="M250 64q-60 0 -108 29q-80 49 -80 166q0 192 178 431q87 110 161 162q-32 -111 -32 -216q0 -32 8 -115.5t25 -142.5q8 -23 29 -23q31 4 31 30l-1 8q-25 82 -32 257q0 130 60 253q61 26 118 26q14 0 30 -3t18 -4q6 -2 12 -2q5 0 14 3q15 7 15 27t-18 28q-4 2 -37 9
q-13 2 -30 2q-26 0 -59 -5q66 62 167 80q13 2 26 2q75 0 126 -66q49 -72 49 -169q0 -121 -76 -281q-85 -168 -223 -297.5t-279 -173.5q-49 -15 -92 -15zM251 4q52 0 108 17q152 47 300.5 185t238.5 317q82 174 82 309q0 116 -60 204q-71 90 -174 90q-18 0 -37 -3
q-179 -31 -264 -174q-112 -49 -253 -222q-191 -256 -191 -468q0 -152 110 -218q63 -37 140 -37z" />
    <glyph glyph-name="P" unicode="P" horiz-adv-x="1229" 
d="M1000 492q83 0 187.5 56t191.5 165q97 130 97 248q0 55 -21 107q-11 26 -39 26q-84 0 -234 -105.5t-269 -218.5q-3 -6 -15 -28t-13 -24.5t-3 -4.5q42 21 89 21q86 0 136 -89q4 -7 4 -14q0 -18 -15 -28q-8 -4 -16 -4q-18 0 -27 16q-31 57 -84 57q-35 0 -74 -21.5
t-66 -45.5q52 -113 171 -113zM268 -16q-24 0 -49 4q-121 28 -167 126q-36 76 -36 149q0 21 3 41q21 129 108 129q32 0 32 -31q-1 -31 -31 -31h-5q-16 0 -27 -22q-18 -34 -18 -86q0 -56 30 -124.5t122 -89.5q17 -3 34 -3q124 0 248.5 168.5t330.5 556.5q132 239 202 341
q-52 14 -110 39q-78 35 -178 58q-45 11 -97 11q-62 0 -132 -16q-138 -42 -191.5 -140t-60.5 -163q-8 -48 -8 -89q0 -47 13.5 -104t47.5 -80q20 -13 41 -13q9 0 18 2q47 15 84.5 60t52.5 73q9 16 26 16q8 0 15 -4q16 -8 16 -28q0 -11 -28 -53q-87 -128 -184 -128
q-39 0 -75 23q-54 38 -76 130q-12 51 -12 108q0 47 8 98q56 285 298 353q79 17 147 17q58 0 138.5 -18.5t159.5 -55.5q82 -36 129 -40q29 36 55 36q7 0 13 -2q26 -10 26 -42q0 -41 -62 -51q-31 -39 -111 -174q102 87 223 159q104 62 182 62q71 0 98 -64.5t27 -131.5
q0 -137 -110 -285q-194 -233 -428 -245q-135 0 -210 116q-150 -276 -268.5 -419t-253.5 -143z" />
    <glyph glyph-name="Q" unicode="Q" horiz-adv-x="1199" 
d="M472 243q31 0 65 11t82 50t86 123q33 78 33 129q0 37 -18 59q-23 25 -80 25q-51 0 -120 -34q-41 -22 -121 -51q-29 -97 -29 -169q0 -106 48 -132q25 -11 54 -11zM1139 -240q-128 0 -279 40q-249 66 -511 180q-32 4 -58 19q-40 19 -40 40q0 7 3 15q10 17 27 17q7 0 25 -6
q13 -6 36 -15l23 -10l15 -1q125 0 357 162q128 92 224 178.5t123 119.5q275 330 275 533q0 77 -54 120q-24 24 -89 48q-28 11 -67 11q-49 0 -141 -23.5t-276 -161.5q-223 -184 -305 -394q35 14 64 29q84 41 149 41q10 0 50 -3.5t75 -42t35 -100.5q0 -65 -38 -154
q-68 -154 -203 -205q-46 -16 -87 -16q-164 0 -164 206q0 66 19 145q-90 -26 -161 -26q-53 0 -93 19q-55 28 -60 90q0 9 7.5 19t24.5 10q25 0 29 -26q6 -50 95 -50q74 0 180 35q42 123 128.5 246.5t217.5 225.5q257 197 450 197q125 -5 200 -73q77 -59 77 -167
q0 -226 -290 -573q-33 -39 -131.5 -127.5t-228.5 -181.5q-170 -120 -293 -156q437 -173 659 -173q170 0 204 97q9 20 29 20q5 0 10 -2q21 -8 21 -29q0 -5 -2 -11q-49 -136 -261 -136z" />
    <glyph glyph-name="R" unicode="R" horiz-adv-x="1310" 
d="M923 534q96 0 219.5 67t215.5 185q40 49 70 134q14 38 14 79q0 50 -20 103q-10 21 -34 21q-81 0 -232 -108t-271 -222l-92 -180q31 -79 130 -79zM1415 -200q-23 0 -48 5q-135 36 -259.5 182t-218 308.5t-132.5 248.5q-139 -274 -253 -415t-249 -142q-20 0 -41 3
q-123 24 -171 121q-41 81 -41 158q0 15 2 31q18 132 108 132q29 -2 29 -30q0 -32 -34 -32q-16 0 -27 -23q-16 -32 -16 -80q0 -60 33.5 -128.5t124.5 -87.5q14 -2 28 -2q127 0 248.5 174t315.5 568q125 243 192 347q-52 12 -111 36q-79 33 -180 53q-39 8 -82 8
q-68 0 -147 -20q-137 -46 -187.5 -146t-55.5 -164q-5 -39 -5 -75q0 -56 16 -115q25 -94 90 -94q10 0 20 3q47 17 83 62.5t49 73.5q10 18 27 18q7 0 15 -4q16 -9 16 -28q0 -10 -26 -53q-63 -100 -147 -129q-19 -5 -38 -5q-37 0 -71 21q-55 36 -80 128q-16 57 -16 123
q0 39 6 82q48 287 288 362q88 21 163 21q48 0 125.5 -15t159 -49t128.5 -36q29 38 56 38q5 0 11 -2q27 -11 27 -44v-9q-5 -30 -60 -42q-31 -41 -113 -189q105 90 230 168q111 69 192 69q64 0 89 -59.5t25 -123.5q0 -123 -96 -253q-103 -132 -249 -210q-125 -67 -234 -67
q-37 0 -66 8q54 -106 138 -240t183.5 -241t200.5 -133q17 -4 34 -4q58 0 108 44q9 7 19 7q15 0 23.5 -9.5t8.5 -20.5q0 -14 -11 -24q-67 -59 -147 -59z" />
    <glyph glyph-name="S" unicode="S" horiz-adv-x="869" 
d="M365 293q19 8 38 19l-19 30q-8 -27 -19 -49zM387 66q83 4 146 38q-71 110 -97 155q-57 -30 -101 -41q-39 -9 -53 -9q-20 0 -28 19q-2 6 -2 12q0 13 12 24q2 1 19 19q48 51 48 129q0 15 8 24q12 12 27 12q14 0 29 -15t58 -85q65 60 65 155q0 27 -6 58q-27 150 -149 150
q-76 0 -150.5 -55t-108.5 -139q-33 -92 -33 -172q0 -97 50 -174q75 -105 247 -105h19zM811 -173q-59 0 -140 88q-74 80 -103 136q-86 -46 -197 -46q-122 0 -195 40t-106 90q-61 94 -61 210q0 90 37 194q45 109 141 174q86 60 179 60q170 -6 207 -202q7 -36 7 -69
q0 -127 -93 -207q1 -3 3 -5.5t3 -4.5l92 -147q35 30 60 71q62 111 62 248q0 162 -86 360q-57 131 -57 217q0 13 5.5 64.5t46.5 95.5q86 96 219 96l46 -5q138 -41 172 -188q8 -34 8 -67q0 -111 -64 -165q-29 -23 -61 -23q-19 0 -38.5 8.5t-19.5 27.5q0 6 3 13q8 19 28 19
q6 0 13 -3.5t14 -3.5q12 0 22 9q23 20 34 67q7 25 7 52q0 152 -134 194q-12 3 -28 3q-107 0 -173 -73q-38 -48 -38 -118q0 -82 51 -194q91 -211 91 -386q0 -154 -70 -280q-33 -54 -79 -91q15 -33 80.5 -111.5t109.5 -85.5q9 0 16 7q11 11 24 11q10 0 20 -8.5t10 -23.5
q0 -10 -7 -19q-26 -29 -61 -29z" />
    <glyph glyph-name="T" unicode="T" horiz-adv-x="677" 
d="M164 1q-30 0 -59 11q-104 40 -104 131q0 49 28 95q14 23 16 25q10 12 26 12q9 0 18 -6q12 -10 12 -26q0 -9 -7 -18q-10 -12 -23 -42q-8 -19 -8 -39q0 -49 64 -74q18 -6 36 -6q104 0 244 205q156 246 278 516q95 207 153 291q33 43 61 66q-174 45 -342 45
q-333 0 -435 -202q-41 -88 -41 -154q0 -47 20 -82q28 -42 64.5 -58.5t60.5 -16.5q91 0 128 110q25 76 27 172q0 32 -1 34q0 13 9.5 22.5t23.5 9.5q30 0 30 -50q0 -17 -2 -62t-21.5 -120.5t-69.5 -128.5q-51 -49 -123 -49q-40 0 -90.5 23.5t-88.5 82.5q-29 50 -29 113
q0 80 47 180q90 187 358 228q69 9 142 9q163 0 349 -46q93 -22 166 -22q144 0 231 79q54 49 76 93t22 52q8 22 31 22q30 -4 30 -31q0 -9 -11 -37q-30 -73 -102 -140q-107 -100 -287 -100q-42 1 -49 2.5t-15 1.5q-9 0 -23 -2t-38.5 -20t-57.5 -61q-56 -82 -148 -280
q-122 -273 -282 -525q-159 -233 -294 -233z" />
    <glyph glyph-name="U" unicode="U" horiz-adv-x="1131" 
d="M409 -3h-4q-56 0 -94 59q-14 28 -14 84q0 153 217 484q96 146 156 275q31 67 31 116q0 45 -26 76q-38 33 -84 33q-72 0 -166 -68q-167 -124 -275 -300q-87 -142 -87 -223q0 -47 30 -68q15 -10 32 -10q50 0 117 44.5t113 93.5q9 9 21 10q13 0 22.5 -9t9.5 -24
q0 -11 -8 -20q-11 -12 -58 -53q-119 -104 -216 -104l-21 1q-60 8 -94 80q-9 28 -9 60q0 105 108 276.5t279 296.5q115 78 204 78q72 0 126 -50q46 -51 46 -119q0 -126 -198 -425q-208 -316 -208 -454q0 -27 6 -52q18 -26 40 -26h4q104 0 352 326q225 311 395 591
q138 218 158 232q11 7 21 7q12 0 22.5 -9t10.5 -22q0 -6 -4 -20q-5 -19 -101 -184q-392 -667 -392 -847q0 -31 9 -43q6 -8 22 -8q25 0 67 33t93.5 98t91.5 131q10 15 27 15q8 0 15 -4q16 -9 16 -26q0 -16 -71 -116q-132 -186 -241 -193q-23 0 -44 11q-47 26 -47 100
q0 130 154 432q-163 -245 -306.5 -403t-247.5 -163z" />
    <glyph glyph-name="V" unicode="V" horiz-adv-x="926" 
d="M390 2h-6q-51 0 -76 54q-11 39 -11 80q0 152 217 483q187 287 187 391q0 45 -26 76q-38 33 -84 33q-74 0 -166 -68q-167 -124 -275 -299q-87 -143 -87 -223q0 -48 30 -69q15 -11 34 -11q34 0 79 24t87 59t62 56q9 10 22 10q12 0 21.5 -9t9.5 -24q0 -11 -8 -19
q-70 -76 -169 -129q-53 -29 -105 -29q-76 0 -115 81q-9 28 -9 60q0 105 108 276.5t279 296.5q116 79 205 79q71 0 125 -50q46 -51 46 -120q0 -127 -198 -424q-208 -320 -208 -453q0 -29 7 -55q5 -12 9.5 -13t6.5 -2t4 -1q99 0 429 409q205 255 500 678q119 168 226 168
q17 0 35 -4q23 -5 23 -30q0 -18 -15 -26q-8 -5 -16 -5l-8 1q-9 3 -19 3q-72 0 -176 -144q-12 -16 -44 -62q-734 -1049 -931 -1049z" />
    <glyph glyph-name="W" unicode="W" horiz-adv-x="1244" 
d="M877 -1q-19 0 -32 20q-6 8 -6 31q0 114 132 536q59 186 112 325l-680 -755q-102 -131 -117 -145q-10 -11 -23 -11q-25 0 -36 22q-3 8 -3 16q0 25 41 60q14 13 87 93q273 351 343 646q8 39 8 73q0 110 -80 160q-35 22 -87 22q-26 0 -85 -10.5t-170 -105.5
q-122 -117 -181 -268q-35 -92 -35 -150q0 -39 15 -64q23 -30 57 -31q58 0 120 50.5t88 83.5q11 11 24 11q11 0 21 -8.5t11 -22.5q0 -11 -8.5 -21t-45.5 -47q-109 -107 -208 -107q-64 0 -108 53q-28 44 -28 106q0 70 53.5 204.5t183.5 256.5q156 132 290 132q65 0 124 -30
q111 -70 111 -215q0 -39 -9 -85q-40 -167 -132 -332l544 608q22 31 42 31q14 0 22.5 -10t8.5 -19l-1 -8q0 -6 -24 -34q-53 -83 -185 -490q-71 -226 -104 -367q173 264 461 597q418 474 578 474q56 0 56 -34q0 -6 -3 -13q-8 -19 -27 -19q-6 0 -11.5 2t-17.5 2q-30 0 -90 -37
q-222 -145 -599 -607q-340 -433 -364 -524q2 -6 2 -13q-1 -18 -16 -27q-9 -5 -19 -5z" />
    <glyph glyph-name="X" unicode="X" horiz-adv-x="1522" 
d="M1773 -270h-32q-129 0 -255 65q-284 136 -358 629q-8 57 -18 106l-112 -114q-549 -568 -800 -568q-150 0 -179 189q-4 29 -4 58q0 116 63.5 242.5t178.5 230.5q177 159 319 159q91 0 137 -77q24 -51 24 -98q0 -84 -72.5 -166t-138.5 -115q-7 -4 -14 -4q-33 0 -33 30
q0 19 15 29q4 0 38.5 24.5t75.5 65.5q66 69 66 134q0 34 -18 71q-25 43 -78 43q-122 0 -278 -142q-104 -96 -169 -222q-53 -101 -53 -204q0 -24 3 -49q20 -136 114 -136q222 0 758 549l137 141q-51 169 -153 246q-76 53 -146 53q-25 0 -26.5 -1t-3.5 -1q-11 0 -22 8t-11 24
q0 10 8.5 21.5t52.5 11.5q32 0 81 -14q183 -51 272 -299q303 293 482 402q108 64 149 64q33 0 33 -31t-32 -31t-142 -70q-158 -101 -471 -402q20 -69 30 -148q59 -437 324 -584q67 -33 123 -45t129 -12h5q26 0 30 -28q0 -31 -29 -35z" />
    <glyph glyph-name="Y" unicode="Y" horiz-adv-x="1243" 
d="M539 -227q8 0 16 2q69 11 225 212q-42 15 -88 15q-89 0 -161 -51q-61 -43 -63 -121q0 -26 22 -40q22 -17 49 -17zM657 819q152 0 222.5 49t84.5 91q17 41 17 78q0 64 -38 101q-22 19 -49 19q-28 0 -61 -19q-122 -79 -199 -316q0 -1 -1 -1v-2h24zM540 -289q-46 0 -88 30
q-45 35 -46 88q13 198 257 233l31 1q66 0 125 -24q150 205 353 572q-210 -258 -399 -304q-29 -6 -55 -6q-113 0 -162 117q-26 69 -26 158q0 85 24 189q-65 8 -122 8q-197 0 -292 -95q-75 -80 -75 -197l1 -36q0 -9 -7.5 -19t-23.5 -10q-26 0 -30 26q-2 5 -2 50q0 129 93 229
q113 113 336 113q65 0 138 -9q2 8 5 15q84 261 226 351q49 28 92 28q50 0 91 -36q59 -54 59 -144q0 -53 -23 -106q-17 -48 -94.5 -109.5t-252.5 -67.5q-27 0 -57 2q-23 -101 -23 -182q0 -77 21 -135q31 -79 106 -79q18 0 39 5q126 33 250 157q212 212 395 536q63 111 66 119
q9 17 28 17q7 0 14 -4q17 -9 17 -28q0 -9 -112 -228q-103 -202 -255 -469q-160 -279 -285 -454q62 -33 122 -72q165 -115 273 -115q53 0 109 21q6 3 12 3t15 -4q16 -7 16 -28q0 -20 -20 -28q-70 -26 -134 -26q-127 0 -304 125q-64 42 -126 74q-189 -252 -300 -252z" />
    <glyph glyph-name="Z" unicode="Z" horiz-adv-x="847" 
d="M1227 1000q28 0 43 8q38 14 38 51q0 29 -23 50q-12 10 -31 10q-8 0 -18 -2q-76 -17 -176 -84q110 -33 167 -33zM1168 -259q-129 0 -313 33q-330 61 -728 186l-90 27q-18 0 -28 15q-5 8 -5 16q0 10 7 19q9 12 24 12h5q115 12 244 129.5t252.5 279t222.5 306.5
q115 167 184 247q-235 88 -402 88q-106 0 -185 -35q-95 -44 -125 -137q-14 -44 -14 -80q0 -63 30.5 -112.5t60.5 -69.5q13 -10 13 -25q0 -9 -5 -18q-10 -12 -26 -12q-9 0 -17 5q-2 0 -26 22.5t-50.5 65t-37.5 103.5q-4 19 -4 41q0 46 17 99q39 118 158 174q76 41 230 41
q4 0 86 -0.5t346 -102.5q128 98 228 119q18 4 34 4q34 0 66 -21.5t45 -64.5q5 -18 5 -37q0 -80 -81 -109q-32 -10 -71 -10q-86 0 -213 47q-62 -62 -195 -257q-141 -208 -311.5 -416.5t-344.5 -296.5q413 -127 712 -182q194 -32 311 -32q62 0 142 17t96 68q9 18 27 18
q7 0 14 -3q17 -7 17 -28q0 -6 -2 -13q-54 -120 -303 -120z" />
    <glyph glyph-name="bracketleft" unicode="[" horiz-adv-x="340" 
d="M252 6h-157q-13 0 -23 9.5t-10 23.5v1212q0 14 10 23.5t23 9.5h157q14 0 23.5 -9.5t9.5 -23.5t-9.5 -24t-23.5 -10h-123v-1144h123q14 0 23.5 -10t9.5 -24t-9.5 -23.5t-23.5 -9.5z" />
    <glyph glyph-name="backslash" unicode="\" horiz-adv-x="725" 
d="M539 2q-22 0 -32 24q-26 58 -467 922q-4 8 -4 16q0 20 19 30q8 4 15 4q19 0 30 -19l402 -792l62 -125q8 -18 8 -22q0 -18 -9.5 -28t-23.5 -10z" />
    <glyph glyph-name="bracketright" unicode="]" horiz-adv-x="374" 
d="M252 6h-157q-13 0 -23 9.5t-10 23.5t10 24t23 10h123v1144h-123q-13 0 -23 10t-10 24t10 23.5t23 9.5h157q14 0 23.5 -9.5t9.5 -23.5v-1212q0 -14 -9.5 -23.5t-23.5 -9.5z" />
    <glyph glyph-name="asciicircum" unicode="^" horiz-adv-x="326" 
d="M251 931q-16 0 -27 14l-75 106l-87 -102q-11 -12 -25 -12q-12 0 -23 9.5t-11 24.5q0 11 8 21l115 135q11 12 27 12q16 -1 26 -14l99 -141q6 -10 6 -20q0 -2 -1 -10.5t-11.5 -15.5t-20.5 -7z" />
    <glyph glyph-name="underscore" unicode="_" horiz-adv-x="697" 
d="M46 -70q-12 0 -20 9.5t-8 23.5t8 24t20 10l598 2q12 0 20.5 -10t8.5 -24t-8.5 -23.5t-20.5 -9.5z" />
    <glyph glyph-name="grave" unicode="`" horiz-adv-x="240" 
d="M169 1038q-13 0 -24 10l-106 105q-10 11 -10 26q0 12 10 22q11 9 24 9q14 0 24 -9l106 -106q10 -10 10 -23q0 -14 -10.5 -24t-23.5 -10z" />
    <glyph glyph-name="a" unicode="a" horiz-adv-x="582" 
d="M71 60q46 8 107.5 66.5t104.5 115.5q54 102 60 116q2 13 3 26q0 27 -13 45q-19 28 -62 28q-50 0 -116.5 -60.5t-107.5 -146.5q-27 -55 -27 -109q0 -7 1.5 -28t29.5 -48q8 -5 15 -5h5zM77 -2q-43 0 -67 21q-52 50 -52 124q0 59 33 134q48 100 132 174q77 68 151 68
q75 -4 110 -55q5 -6 8 -13l22 36t27 18q8 0 16 -5q15 -9 15 -26q0 -8 -5 -18q-147 -253 -147 -348q0 -22 4 -22q12 -5 25 -5q40 0 101.5 54.5t110.5 129.5q11 14 26 14q9 0 17 -5q14 -9 14 -27q0 -8 -5 -16q-45 -70 -118 -139t-149 -74q-27 0 -53 14q-35 24 -35 72v14
q-102 -109 -181 -120z" />
    <glyph glyph-name="b" unicode="b" horiz-adv-x="542" 
d="M199 155q59 0 113 10q80 100 80 184q0 40 -38 67q-15 5 -32 5q-38 0 -90 -35q-82 -56 -176 -185q44 -44 143 -46zM113 42q60 0 125 52q-19 -1 -40 -1q-116 6 -164 47v-10q0 -24 8 -48q13 -40 71 -40zM-115 -28q-18 1 -27 15q-5 7 -5 19q0 32 60 152q124 245 327 569
q122 192 152 195q12 0 21.5 -9t10.5 -21q0 -13 -9 -22q-45 -52 -146 -215l-200 -339q73 87 154 137q50 30 98 30q37 0 63 -13q69 -45 69 -125q0 -69 -49 -155q101 36 123 58q9 5 18 5q16 0 23 -11t7 -20q0 -16 -13 -25q-3 -4 -55 -32.5t-163 -55.5q-60 -68 -136 -106
q-48 -24 -95 -24q-27 0 -53 8q-73 30 -84 100l-61 -95q-15 -20 -30 -20z" />
    <glyph glyph-name="c" unicode="c" horiz-adv-x="499" 
d="M147 0q-19 0 -37 3q-100 18 -140 110q-11 31 -11 64q0 54 38 133.5t119 148.5q77 62 142 62q37 0 69 -20q49 -32 49 -87q0 -62 -54 -129q-10 -11 -24 -11q-11 0 -21 8.5t-10 23.5q0 10 7 19q11 12 25 38.5t14 50.5q0 23 -18.5 34.5t-36.5 11.5q-8 0 -25 -4t-40.5 -18.5
t-36.5 -26.5q-73 -63 -110 -142q-25 -53 -25 -94q0 -20 6 -38q32 -75 120 -75q153 0 340 208q8 10 21 11q12 0 22.5 -9t10.5 -23q0 -11 -8 -20q-201 -224 -386 -229z" />
    <glyph glyph-name="d" unicode="d" horiz-adv-x="617" 
d="M70 63q40 0 99 26.5t112.5 67.5t64.5 70q1 4 4 7q10 26 25 58q2 15 2 32q0 27 -8 65q-11 48 -75 52q-58 0 -132 -57q-52 -41 -94 -109q-46 -76 -46 -163q0 -36 18 -43q13 -6 30 -6zM399 -21q-44 0 -72 35q-18 23 -18 61l1 27q-26 -20 -53 -36.5t-80 -39.5t-108 -25
q-13 0 -26 2q-83 17 -83 116q10 184 163 313q91 71 170 71q14 0 28 -2q83 -17 108 -100q94 178 249 408q70 105 79.5 116t23.5 11q10 0 20 -7q11 -11 11 -24q0 -10 -7 -19q-39 -52 -147 -219.5t-200 -345.5q-86 -167 -86 -249q0 -14 8 -25q9 -5 20 -5q70 0 199 206
q9 15 25 15q9 0 17 -5q15 -9 15 -26q0 -16 -64 -106q-101 -142 -193 -147z" />
    <glyph glyph-name="e" unicode="e" horiz-adv-x="497" 
d="M101 244q28 0 74 20q109 46 139 116q9 24 9 38q0 16 -9 26q-19 20 -48 20q-7 0 -24 -3.5t-40.5 -18t-36.5 -26.5q-82 -71 -118 -159q26 -13 54 -13zM157 1q-127 0 -178 117q-11 31 -11 64q0 54 38 133.5t119 148.5q77 62 142 62q37 0 69 -20q49 -34 49 -88q0 -29 -14 -63
q-44 -101 -200 -159q-37 -14 -72 -14t-69 13l-1 -15q0 -21 7 -38q34 -79 117 -79q151 0 344 217q10 11 24 11q11 0 20.5 -8t10.5 -20q0 -13 -8 -23q-214 -239 -387 -239z" />
    <glyph glyph-name="f" unicode="f" horiz-adv-x="350" 
d="M42 255q37 24 100 85q134 130 194 294q54 135 54 188q0 17 -2 20q-13 -5 -26 -26q-139 -220 -320 -561zM-163 -408q9 0 23 4.5t39 32.5q77 97 116 297q14 91 14 147q0 67 -19 87l-11 11q-201 -403 -201 -535q0 -19 6 -32q17 -12 33 -12zM-162 -470q-35 0 -70 24
q-25 14 -32 64q-1 8 -1 18q0 125 166 475q100 208 212 407q191 337 233 371q20 15 43 15q64 -6 64 -80q0 -61 -59 -212q-29 -80 -71 -145q-113 -166 -198 -226h4q162 0 283 151q10 12 23 12q11 0 20 -6q12 -10 12 -24q0 -10 -6 -20q-105 -128 -214 -155q-82 -21 -141 -21
q-19 0 -35 2q20 -47 20 -109q0 -84 -16 -156q-41 -217 -129 -326q-52 -59 -108 -59z" />
    <glyph glyph-name="g" unicode="g" horiz-adv-x="618" 
d="M-193 -437q27 0 56 12q155 66 319 367q-41 -17 -86 -33q-190 -70 -282 -147q-96 -81 -96 -138q0 -31 33 -47q27 -14 56 -14zM68 110q48 3 110 49q108 79 199 193q10 12 25 12q21 0 29 -22v2q0 76 -64 117q-32 21 -77 21q-89 0 -170 -92q-57 -69 -79 -144q-12 -42 -12 -74
q0 -62 39 -62zM-193 -498q-43 0 -84 20q-66 35 -66 104q0 76 97.5 167t320.5 174q85 31 154 62q44 84 76 155q-139 -132 -236 -135q-62 0 -89 55q-13 31 -13 70q0 129 107 257q101 112 218 112q60 0 106 -29q94 -64 94 -164q0 -40 -15 -85q-10 -19 -28 -19q-6 0 -12 2
q-20 8 -20 28q0 4 9 34q-21 -58 -105 -237q221 117 300 229q10 12 23 12q11 0 20 -6q13 -9 13 -26q0 -9 -7 -18q-97 -141 -395 -283q-197 -379 -389 -463q-40 -16 -79 -16z" />
    <glyph glyph-name="h" unicode="h" horiz-adv-x="605" 
d="M-60 1q-33 0 -33 39q0 53 85 226q82 186 396 660q9 14 25 14q9 0 17 -6q14 -9 14 -26q0 -9 -5 -17q-346 -523 -422 -718q254 342 380 342q19 0 36 -6q51 -21 51 -82q0 -62 -79 -206q-64 -118 -64 -148q0 -8 6 -8q53 0 244 201q10 9 22 9q13 0 22 -9t10 -21q0 -12 -9 -22
q-115 -123 -194 -183q-51 -38 -91 -38q-23 0 -43 12q-29 21 -29 57q0 53 71 179q73 133 73 177q0 13 -5 20q-9 6 -20 6q-5 0 -18 -2.5t-46.5 -24t-85.5 -73.5q-113 -122 -199 -240l-54 -69.5t-30 -32.5t-22 -9q-1 -1 -3 -1z" />
    <glyph glyph-name="i" unicode="i" horiz-adv-x="279" 
d="M131 419q-8 0 -16 4q-15 9 -15 26q0 9 5 17l28 45q9 15 27 15q8 0 15 -4q15 -10 15 -27q0 -8 -4 -16l-28 -45q-11 -15 -27 -15zM59 0q-75 0 -102 86q-4 18 -4 38q0 52 30.5 125.5t70.5 129.5q9 14 26 14q8 0 16 -5q14 -11 14 -25q0 -9 -5 -18q-43 -64 -70 -133
q-20 -52 -20 -88q0 -11 2 -21q9 -31 24 -37q9 -4 19 -4q56 0 190 170q10 12 24 12q10 0 20 -6q11 -10 11 -26q0 -20 -106 -138q-66 -74 -140 -74z" />
    <glyph glyph-name="j" unicode="j" horiz-adv-x="448" 
d="M392 503q-6 0 -10 3q-22 6 -22 30q0 5 13 38q18 51 39 51l12 -2q22 -6 22 -28q0 -7 -24 -71q-10 -21 -30 -21zM-411 -539q-71 0 -131 48q-49 44 -49 124q0 102 118 224q10 9 25 9q30 0 30 -32q0 -12 -9 -21q-99 -107 -99 -185q2 -58 28 -71q42 -32 94 -32q42 0 120.5 34
t152.5 100q245 223 339 428t106 295q-251 -19 -313 -194q-8 -22 -29 -22q-6 0 -15 3t-13.5 12t-4.5 16l2 11q50 137 164.5 186.5t244.5 55.5q14 0 24 -10.5t10 -27.5q0 -18 -30 -135q-91 -354 -443 -666q-169 -150 -322 -150z" />
    <glyph glyph-name="k" unicode="k" horiz-adv-x="580" 
d="M130 206q54 7 110.5 42t99.5 81q47 52 47 78v1l-6 2q-50 0 -166 -113q-44 -44 -85 -91zM-60 -1q-28 0 -41 25q-4 6 -4 19q0 58 97 242q116 219 285 473q122 182 153 182q13 0 22 -9.5t9 -20.5q0 -14 -10 -24q-35 -33 -114 -150t-172 -272q-133 -227 -177 -329
q138 168 239 258q88 79 150 79q35 0 53.5 -20.5t18.5 -45.5q0 -28 -20 -61.5t-45 -59.5q-50 -53 -117.5 -93.5t-137.5 -47.5q50 -83 130 -83q124 0 299 190q9 9 22 10q12 0 22 -8q9 -10 10 -22q0 -12 -8 -22q-193 -209 -343 -209q-22 0 -43 4q-103 27 -153 127
q-92 -111 -101 -120q-13 -12 -24 -12z" />
    <glyph glyph-name="l" unicode="l" horiz-adv-x="353" 
d="M59 -16q-70 0 -104 74q-9 17 -9 48q0 9 2 37t37 117t121 238q132 227 291 447q9 13 25 13q9 0 18 -5q13 -10 13 -26q0 -9 -5 -18q-227 -320 -343 -541q-97 -184 -97 -259q0 -15 4 -26q9 -22 20.5 -29.5t28.5 -7.5q97 0 282 230q10 12 25 12q10 0 18 -6q11 -10 12 -24
q0 -10 -6 -20q-203 -254 -333 -254z" />
    <glyph glyph-name="m" unicode="m" horiz-adv-x="902" 
d="M-82 -39q-7 0 -15 3t-14 12t-6 21q0 9 245 527q10 18 28 18q7 0 14 -4q17 -9 17 -28q0 -7 -154 -331q241 307 353 307q29 0 46 -21q20 -18 20 -61q0 -26 -9 -74.5t-59 -182.5q113 146 207 243q83 85 145 93q67 -7 67 -85q0 -80 -69 -219q-46 -101 -48 -130q1 -2 3 -2
q29 0 87 60q54 55 102 124q10 13 25 13q10 0 18 -5q14 -10 14 -25q0 -16 -58 -88q-107 -134 -185 -141q-36 0 -58 30q-9 12 -9 33q0 51 52 156q65 143 65 193q0 12 -3 20l-3 3q-53 -17 -135.5 -109.5t-148.5 -176.5q-71 -90 -107 -128t-59 -38q-15 0 -26 12q-6 9 -6 18
q0 7 3 14q2 3 28 60t55 136q50 135 50 195q0 17 -4 21q-5 0 -17 -3q-111 -49 -333 -339q-53 -68 -77 -94.5t-41 -26.5z" />
    <glyph glyph-name="n" unicode="n" horiz-adv-x="569" 
d="M-76 -2q-19 0 -29 13q-7 7 -7 17q0 24 97 227q86 185 96 205t28 20q8 0 15 -4q17 -10 17 -27q0 -7 -3 -14l-104 -221q237 282 341 282q24 0 43 -12q0 -1 1 -1q33 -20 33 -77q0 -17 -8.5 -72t-117.5 -264q-2 -4 -2 -7q2 -1 7 -1q52 0 121 51q51 37 93 107q10 16 27 16
q7 0 15 -4q16 -10 16 -27q0 -8 -4 -15q-70 -116 -163 -161q-59 -29 -101 -29q-56 0 -71 42q-3 8 -3 17q0 17 11 39q118 230 118 307q0 29 -17 29q-43 0 -162 -116q-98 -101 -222 -256q-38 -46 -46 -54t-19 -10z" />
    <glyph glyph-name="o" unicode="o" horiz-adv-x="505" 
d="M258 207l29 1q42 75 49 177q0 74 -86 74q-47 0 -96 -28q-44 -27 -75 -71q-28 -38 -28 -70q6 -83 207 -83zM78 0q-82 0 -128 71q-16 26 -16 68q0 39 23 72q9 12 22 12q9 0 18 -6q11 -9 11 -24q0 -8 -5 -16q-12 -17 -12 -39q0 -24 8 -38q24 -36 58 -41q13 -2 24 -2
q19 0 34 5q70 18 132 88q-49 1 -105 11q-148 30 -148 128q0 53 39.5 107t90.5 84q63 37 126 37q48 0 85 -22q58 -36 58 -108q-1 -86 -38 -170q70 16 106.5 36t37.5 22q9 6 18 6q13 0 20.5 -10t7.5 -19q0 -14 -11 -22q-3 -6 -57.5 -34t-155.5 -42q-82 -120 -193 -148
q-26 -6 -50 -6z" />
    <glyph glyph-name="p" unicode="p" horiz-adv-x="557" 
d="M128 63q72 0 150 78q-95 -6 -163 -45q-21 -14 -25 -27q12 -6 38 -6zM-318 -411q-7 0 -14 3q-17 10 -17 28q0 7 468 895q10 16 27 16q7 0 15 -3q16 -11 16 -28q0 -7 -49 -102q65 58 136 91q41 19 79 19q28 0 54 -10q66 -33 66 -111q0 -75 -49 -164q67 13 139 47q6 3 13 3
q19 0 28 -18q3 -7 3 -14q0 -18 -17 -27q-114 -52 -212 -62q-59 -79 -138 -124q-50 -29 -100 -29q-29 0 -59 11q-43 20 -43 57q0 20 11 38q21 32 43 43q95 52 211 57l41 5q67 101 67 175q0 7 -1.5 25.5t-27.5 31.5q-13 4 -27 4q-61 0 -154 -75.5t-166 -167.5l-315 -598
q-11 -16 -28 -16z" />
    <glyph glyph-name="q" unicode="q" horiz-adv-x="471" 
d="M44 115q43 0 144 107q82 89 151 178v11q-1 22 -52 22q-52 -2 -115 -44q-101 -68 -138 -172q-8 -22 -8 -45q0 -41 17 -57h1zM35 -607q-15 0 -23 10.5t-8 22.5q18 316 256 780q-135 -155 -216 -155q-49 0 -70 58q-10 30 -10 61q0 72 52 151q53 77 128 126t143 51
q69 0 98 -39l23.5 28.5t24.5 12.5q10 0 18 -5q12 -10 12 -27q0 -6 -3 -14l-24 -47q-251 -458 -332 -759q44 82 101 150q78 92 156 92q48 0 92 -38q11 -10 11 -25q0 -10 -9 -20.5t-23 -10.5q-10 0 -19 7q-25 23 -52 23q-9 0 -18 -3q-58 -19 -114.5 -96.5t-100.5 -167.5
t-64 -145q-10 -21 -29 -21z" />
    <glyph glyph-name="r" unicode="r" horiz-adv-x="482" 
d="M44 404q51 76 51 113q0 9 -2 12t-11 7q-11 0 -23 -12q-28 -31 -28 -74q0 -29 13 -46zM247 -3q-38 0 -61.5 26.5t-23.5 71.5q0 96 100 269q-62 -53 -135 -53q-55 0 -91 20l-3 1q-64 37 -64 119q0 67 45 115q30 32 65 32q36 0 56.5 -23.5t20.5 -58.5q0 -27 -16 -66t-41 -75
q13 -2 26 -2q56 0 108 47q40 36 71 36q21 0 44 -16q12 -10 12 -25q0 -8 -5 -17q-66 -102 -106 -201q-25 -63 -25 -100q0 -38 22 -38q37 0 99 52q58 48 120 145q9 15 26 15q9 0 17 -5q14 -9 14 -25q0 -9 -4 -17q-135 -210 -271 -227z" />
    <glyph glyph-name="s" unicode="s" horiz-adv-x="444" 
d="M157 55q24 0 45 8q32 13 39 35q3 16 3 29v11q-77 -47 -132 -77q24 -6 45 -6zM155 -6q-69 0 -134 43q-13 10 -13 24q0 24 23 31q38 11 193 106q-46 74 -46 134q0 46 20 92q-109 -104 -170 -198q-9 -14 -25 -14q-10 0 -18 4q-14 10 -14 27q0 8 5 16q55 86 164 195t210 141
l8 1q7 0 15 -4q15 -8 15 -26q0 -17 -14 -26l-19 -14q-49 -38 -86 -99q-29 -47 -29 -94q0 -37 30 -89l6 -13q104 66 197 137q9 6 18 6q15 0 23.5 -10.5t8.5 -21.5q0 -27 -223 -169q6 -20 6 -44q0 -91 -83 -124q-32 -11 -68 -11z" />
    <glyph glyph-name="t" unicode="t" horiz-adv-x="358" 
d="M67 0q-70 0 -104 74q-9 17 -9 48q0 9 2 37t37 117q66 168 264 468h-218q-12 0 -21.5 9t-9.5 22t9.5 22t21.5 9h259l107 155q10 12 25 12q9 0 18 -5q13 -10 13 -25q0 -9 -5 -18l-83 -119h115q13 0 22 -9t9 -22t-9 -22t-22 -9h-157q-314 -476 -314 -622q0 -38 23 -52
q13 -9 28 -9q99 0 283 231q9 12 22 12q12 0 21 -7q12 -10 12 -23q0 -11 -6 -20q-203 -254 -333 -254z" />
    <glyph glyph-name="u" unicode="u" horiz-adv-x="595" 
d="M341 -16q-18 0 -36 6q-59 22 -59 95q0 19 5 41q-131 -126 -235 -126q-37 0 -58 16q-31 24 -31 67q0 17 7 58t77 168q65 113 109 170q9 13 25 13q10 0 19 -6q12 -10 12 -25q0 -9 -5 -18q-81 -112 -137 -222q-45 -89 -45 -133q0 -10 3 -18q1 -1 3.5 -4.5t22.5 -3.5
q134 7 316 255q102 175 133 175q9 0 18 -5q14 -10 14 -26q0 -8 -4 -15q-50 -83 -106 -158q-82 -138 -82 -203q0 -10 3 -19q4 -20 32 -20q60 0 157 111q44 50 71 90q9 13 24 13q10 0 19 -5q13 -9 13 -25t-57 -88q-126 -158 -228 -158z" />
    <glyph glyph-name="v" unicode="v" horiz-adv-x="586" 
d="M337 240q122 132 128 214q0 12 -5.5 18.5t-17.5 9t-23 2.5q-40 0 -65 -24q-58 -57 -58 -136q0 -57 41 -84zM65 1l-15 1q-90 12 -90 125q0 39 19 112.5t58 158t51 105.5q8 16 26 16q8 0 16 -4q16 -9 16 -26q0 -8 -4 -16q-51 -94 -93 -214q-27 -79 -27 -132q0 -44 16 -57
q10 -7 28 -7q43 0 103 36t124 96q-59 47 -59 126q0 3 0.5 37.5t32.5 89.5q60 97 151 97q18 0 38 -4q71 -19 71 -87q0 -12 -2 -25q-20 -92 -115 -203q69 4 168 53q7 4 14 4q18 0 27 -18q3 -7 3 -14q0 -18 -16 -27q-132 -62 -209 -62q-24 0 -42 6q-72 -72 -149.5 -118.5
t-140.5 -48.5z" />
    <glyph glyph-name="w" unicode="w" horiz-adv-x="845" 
d="M612 222q117 126 126 210q0 29 -47 29q-39 0 -63 -24q-58 -58 -58 -130q0 -45 25 -72q7 -8 17 -13zM345 -13q-8 0 -15 1q-88 12 -88 127q0 53 22 120q-157 -225 -246 -228q-8 0 -15 1q-60 15 -60 88q0 45 29 121t77 158.5t69 112.5q9 14 26 14q8 0 16 -5q14 -9 14 -25
q0 -9 -5 -17q-66 -99 -121 -215q-45 -94 -45 -144q0 -25 13 -28q18 0 50.5 27.5t72.5 76.5q92 115 163 223q57 85 71 96q11 8 23 8q10 0 18 -6q12 -9 12 -25l-5 -17l-1 -1q-50 -92 -91 -210q-27 -77 -27 -129q0 -43 16 -56q9 -7 29 -7q41 0 99.5 35t121.5 95q-10 7 -18 15
q-40 47 -40 108q0 3 0.5 37t31.5 88q60 95 150 95q17 0 36 -4q70 -19 70 -88q0 -11 -2 -23q-20 -89 -114 -198q68 4 165 52q7 3 13 3q20 0 28 -17q4 -7 4 -14q0 -18 -18 -27q-128 -60 -203 -60q-24 0 -42 6q-71 -70 -147 -116t-137 -48z" />
    <glyph glyph-name="x" unicode="x" horiz-adv-x="642" 
d="M388 -9q-43 0 -77 25q-46 33 -55 133q-139 -144 -223 -149q-31 0 -48 12q-44 30 -44 91q0 40 14 87q10 35 16 48q8 19 28 19q6 0 12 -2q20 -10 20 -28q0 -6 -3 -13q-25 -61 -25 -109q0 -34 17 -41l13 -2q60 3 221 174q4 87 4 108q0 14 -0.5 44t-10.5 42.5t-26 12.5
q-32 0 -88 -48q-21 -18 -33 -18q-32 0 -32 32q0 17 18 28q82 68 137 68q35 0 67 -30q31 -39 31 -121q0 -23 -3 -49l91 101q144 165 226 237q58 51 97 51q17 0 30.5 -9.5t13.5 -24.5q0 -9 -6 -18q-9 -14 -24 -14q-8 0 -16 4q-22 -4 -68.5 -48t-102.5 -104.5l-104 -114.5
l-139 -154v-10q0 -62 13 -104.5t57 -42.5q89 0 165 90q47 54 68 97q9 17 29 17q7 0 13 -3q17 -9 17 -28q0 -7 -3 -13t-23 -39.5t-57.5 -75.5t-89.5 -74t-117 -34z" />
    <glyph glyph-name="y" unicode="y" horiz-adv-x="529" 
d="M-245 -482q23 0 48 10q146 62 318 358q-33 -13 -68 -25q-190 -71 -282 -148q-96 -80 -96 -137q0 -31 33 -47q22 -11 47 -11zM-246 -544q-38 0 -74 18q-66 35 -66 103q0 77 97.5 168t320.5 174q76 27 139 54q71 132 125 250q-181 -223 -265 -223q-49 0 -71 34
q-15 20 -15 56q0 116 143 390q8 21 29 21q5 0 10 -2q21 -8 21 -29q0 -9 -16 -41q-124 -251 -124 -337q0 -20 4 -24.5t13 -5.5q64 11 179 147t207 277q10 14 26 14q7 0 14 -3q17 -10 17 -27q0 -6 -2 -12q-74 -191 -202 -442q152 79 191 132.5t47 77.5q8 20 28 20q6 0 12 -3
q20 -8 20 -28q0 -41 -80 -127q-66 -71 -268 -163q-208 -377 -388 -454q-37 -15 -72 -15z" />
    <glyph glyph-name="z" unicode="z" horiz-adv-x="630" 
d="M-20 -421q6 0 40 3.5t85 32.5q117 63 207 183.5t93 232.5q-151 -73 -280 -121q-118 -45 -183 -104q-79 -73 -79 -133q0 -27 19 -48q44 -46 98 -46zM-16 -482q-88 0 -148 66q-35 39 -35 89q0 18 5 38q50 160 297 257q136 50 286 124q-29 32 -96 32q-34 0 -79 -9
q-21 -3 -37 -3q-3 0 -14 0.5t-20 17.5q-4 4 -4 16q0 3 1 10q3 10 122 127q163 160 186 206q-3 1 -7 1q-128 0 -201.5 -23.5t-138.5 -55.5q-7 -3 -13 -3q-19 0 -28 18q-3 7 -3 13q0 36 165 87q81 25 219 25q33 0 47 -10q23 -17 23 -43q0 -35 -47 -93q-43 -53 -216 -223
q21 3 43 3q31 0 76 -8t78 -57q117 63 190 132q9 10 22 10q12 0 21.5 -9t9.5 -24q0 -11 -8 -19q-87 -83 -215 -149q1 -14 1 -29q0 -123 -96 -259.5t-236 -212.5q-81 -42 -150 -42z" />
    <glyph glyph-name="braceleft" unicode="{" horiz-adv-x="450" 
 />
    <glyph glyph-name="bar" unicode="|" horiz-adv-x="295" 
 />
    <glyph glyph-name="braceright" unicode="}" horiz-adv-x="450" 
 />
    <glyph glyph-name="asciitilde" unicode="~" horiz-adv-x="471" 
d="M298 1032q-43 1 -101 36q-33 18 -61 18q-15 0 -28 -5q-23 -11 -27 -25q-10 -17 -25 -17q-9 0 -16 5q-15 11 -15 29q0 9 5 17q15 34 64 56q17 8 38 8q39 0 91 -26q48 -29 73 -29q2 0 16.5 0.5t53.5 48.5q9 10 21 10q11 0 21 -9q9 -11 9 -24t-8 -24q-59 -69 -111 -69z" />
    <glyph glyph-name="cent" unicode="&#xa2;" horiz-adv-x="752" 
 />
    <glyph glyph-name="sterling" unicode="&#xa3;" horiz-adv-x="678" 
 />
    <glyph glyph-name="yen" unicode="&#xa5;" horiz-adv-x="890" 
 />
    <glyph glyph-name="dieresis" unicode="&#xa8;" horiz-adv-x="344" 
 />
    <glyph glyph-name="acute" unicode="&#xb4;" horiz-adv-x="274" 
 />
    <glyph glyph-name="cedilla" unicode="&#xb8;" horiz-adv-x="246" 
 />
    <glyph glyph-name="Agrave" unicode="&#xc0;" 
 />
    <glyph glyph-name="Aacute" unicode="&#xc1;" 
 />
    <glyph glyph-name="Acircumflex" unicode="&#xc2;" 
 />
    <glyph glyph-name="Atilde" unicode="&#xc3;" 
 />
    <glyph glyph-name="Adieresis" unicode="&#xc4;" 
 />
    <glyph glyph-name="Aring" unicode="&#xc5;" 
 />
    <glyph glyph-name="AE" unicode="&#xc6;" horiz-adv-x="2177" 
 />
    <glyph glyph-name="Ccedilla" unicode="&#xc7;" horiz-adv-x="1186" 
 />
    <glyph glyph-name="Egrave" unicode="&#xc8;" horiz-adv-x="1084" 
 />
    <glyph glyph-name="Eacute" unicode="&#xc9;" horiz-adv-x="1084" 
 />
    <glyph glyph-name="Ecircumflex" unicode="&#xca;" horiz-adv-x="1084" 
 />
    <glyph glyph-name="Edieresis" unicode="&#xcb;" horiz-adv-x="1084" 
 />
    <glyph glyph-name="Igrave" unicode="&#xcc;" horiz-adv-x="770" 
 />
    <glyph glyph-name="Iacute" unicode="&#xcd;" horiz-adv-x="770" 
 />
    <glyph glyph-name="Icircumflex" unicode="&#xce;" horiz-adv-x="770" 
 />
    <glyph glyph-name="Idieresis" unicode="&#xcf;" horiz-adv-x="770" 
 />
    <glyph glyph-name="Eth" unicode="&#xd0;" horiz-adv-x="1583" 
 />
    <glyph glyph-name="Ntilde" unicode="&#xd1;" horiz-adv-x="1428" 
 />
    <glyph glyph-name="Ograve" unicode="&#xd2;" horiz-adv-x="866" 
 />
    <glyph glyph-name="Oacute" unicode="&#xd3;" horiz-adv-x="866" 
 />
    <glyph glyph-name="Ocircumflex" unicode="&#xd4;" horiz-adv-x="866" 
 />
    <glyph glyph-name="Otilde" unicode="&#xd5;" horiz-adv-x="866" 
 />
    <glyph glyph-name="Odieresis" unicode="&#xd6;" horiz-adv-x="866" 
 />
    <glyph glyph-name="multiply" unicode="&#xd7;" horiz-adv-x="367" 
 />
    <glyph glyph-name="Ugrave" unicode="&#xd9;" horiz-adv-x="1131" 
 />
    <glyph glyph-name="Uacute" unicode="&#xda;" horiz-adv-x="1131" 
 />
    <glyph glyph-name="Ucircumflex" unicode="&#xdb;" horiz-adv-x="1131" 
 />
    <glyph glyph-name="Udieresis" unicode="&#xdc;" horiz-adv-x="1131" 
 />
    <glyph glyph-name="Yacute" unicode="&#xdd;" horiz-adv-x="1243" 
 />
    <glyph glyph-name="Ydieresis" unicode="&#x178;" horiz-adv-x="1243" 
 />
    <glyph glyph-name="germandbls" unicode="&#xdf;" horiz-adv-x="815" 
 />
    <glyph glyph-name="agrave" unicode="&#xe0;" horiz-adv-x="582" 
 />
    <glyph glyph-name="aacute" unicode="&#xe1;" horiz-adv-x="583" 
 />
    <glyph glyph-name="acircumflex" unicode="&#xe2;" horiz-adv-x="582" 
 />
    <glyph glyph-name="atilde" unicode="&#xe3;" horiz-adv-x="580" 
 />
    <glyph glyph-name="adieresis" unicode="&#xe4;" horiz-adv-x="583" 
 />
    <glyph glyph-name="aring" unicode="&#xe5;" horiz-adv-x="582" 
 />
    <glyph glyph-name="ae" unicode="&#xe6;" horiz-adv-x="1078" 
 />
    <glyph glyph-name="oe" unicode="&#x153;" horiz-adv-x="904" 
 />
    <glyph glyph-name="ccedilla" unicode="&#xe7;" horiz-adv-x="499" 
 />
    <glyph glyph-name="egrave" unicode="&#xe8;" horiz-adv-x="497" 
 />
    <glyph glyph-name="eacute" unicode="&#xe9;" horiz-adv-x="497" 
 />
    <glyph glyph-name="ecircumflex" unicode="&#xea;" horiz-adv-x="497" 
 />
    <glyph glyph-name="edieresis" unicode="&#xeb;" horiz-adv-x="497" 
 />
    <glyph glyph-name="igrave" unicode="&#xec;" horiz-adv-x="279" 
 />
    <glyph glyph-name="iacute" unicode="&#xed;" horiz-adv-x="279" 
 />
    <glyph glyph-name="icircumflex" unicode="&#xee;" horiz-adv-x="279" 
 />
    <glyph glyph-name="idieresis" unicode="&#xef;" horiz-adv-x="279" 
 />
    <glyph glyph-name="ntilde" unicode="&#xf1;" horiz-adv-x="569" 
 />
    <glyph glyph-name="ograve" unicode="&#xf2;" horiz-adv-x="505" 
 />
    <glyph glyph-name="oacute" unicode="&#xf3;" horiz-adv-x="505" 
 />
    <glyph glyph-name="ocircumflex" unicode="&#xf4;" horiz-adv-x="505" 
 />
    <glyph glyph-name="otilde" unicode="&#xf5;" horiz-adv-x="505" 
 />
    <glyph glyph-name="odieresis" unicode="&#xf6;" horiz-adv-x="505" 
 />
    <glyph glyph-name="ugrave" unicode="&#xf9;" horiz-adv-x="595" 
 />
    <glyph glyph-name="uacute" unicode="&#xfa;" horiz-adv-x="595" 
 />
    <glyph glyph-name="ucircumflex" unicode="&#xfb;" horiz-adv-x="595" 
 />
    <glyph glyph-name="udieresis" unicode="&#xfc;" horiz-adv-x="595" 
 />
    <glyph glyph-name="yacute" unicode="&#xfd;" horiz-adv-x="529" 
 />
    <glyph glyph-name="ydieresis" unicode="&#xff;" horiz-adv-x="529" 
 />
    <glyph glyph-name="circumflex" unicode="&#x2c6;" horiz-adv-x="383" 
 />
    <glyph glyph-name="caron" unicode="&#x2c7;" horiz-adv-x="383" 
 />
    <glyph glyph-name="ring" unicode="&#x2da;" horiz-adv-x="243" 
 />
    <glyph glyph-name="tilde" unicode="&#x2dc;" horiz-adv-x="476" 
 />
    <glyph glyph-name="hungarumlaut" unicode="&#x2dd;" horiz-adv-x="317" 
 />
    <glyph glyph-name="quoteleft" unicode="&#x2018;" horiz-adv-x="155" 
 />
    <glyph glyph-name="quoteright" unicode="&#x2019;" horiz-adv-x="155" 
 />
    <glyph glyph-name="quotesinglbase" unicode="&#x201a;" horiz-adv-x="155" 
 />
    <glyph glyph-name="quotedblleft" unicode="&#x201c;" horiz-adv-x="317" 
 />
    <glyph glyph-name="quotedblright" unicode="&#x201d;" horiz-adv-x="317" 
 />
    <glyph glyph-name="quotedblbase" unicode="&#x201e;" horiz-adv-x="317" 
 />
    <glyph glyph-name="lira" unicode="&#x20a4;" horiz-adv-x="662" 
 />
    <glyph glyph-name="Euro" unicode="&#x20ac;" horiz-adv-x="922" 
 />
    <glyph glyph-name="b.salt" unicode="&#xe027;" horiz-adv-x="542" 
 />
    <glyph glyph-name="d.salt" unicode="&#xe029;" horiz-adv-x="617" 
 />
    <glyph glyph-name="f.salt" unicode="&#xe031;" horiz-adv-x="365" 
 />
    <glyph glyph-name="g.salt" unicode="&#xe032;" horiz-adv-x="552" 
 />
    <glyph glyph-name="h.salt" unicode="&#xe033;" horiz-adv-x="605" 
 />
    <glyph glyph-name="j.salt" unicode="&#xe035;" horiz-adv-x="465" 
 />
    <glyph glyph-name="k.salt" unicode="&#xe036;" horiz-adv-x="572" 
 />
    <glyph glyph-name="l.salt" unicode="&#xe037;" horiz-adv-x="353" 
d="M425 720q85 7 119 76q21 43 21 85q0 14 -4 35.5t-18 30t-26 8.5q-30 0 -54 -31q-38 -49 -133 -190q42 -14 84 -14h11zM61 -19q-70 0 -104 74q-9 17 -9 48q0 9 2 37t37 117q62 157 250 448q-34 16 -68 34q-63 34 -133 61.5t-155 32.5q-13 1 -21.5 10.5t-8.5 22.5
q1 13 9.5 21t21.5 8q97 -6 174 -36t142 -65q38 -21 74 -37l129 187q20 35 67 61q21 12 45 12q28 0 61 -17q54 -34 54 -118q0 -98 -69 -168q-47 -49 -131 -56q-77 0 -133 22q-284 -437 -284 -575q0 -62 52 -62q97 0 282 230q10 12 25 12q10 0 18 -6q12 -11 12 -24
q0 -10 -7 -20q-202 -254 -332 -254z" />
    <glyph glyph-name="r.salt" unicode="&#xe043;" horiz-adv-x="575" 
 />
    <glyph glyph-name="t.salt" unicode="&#xe045;" horiz-adv-x="360" 
 />
    <glyph glyph-name="t.swsh" unicode="&#xe097;" horiz-adv-x="358" 
 />
    <glyph glyph-name="b.ss01" unicode="&#xe131;" horiz-adv-x="542" 
 />
    <glyph glyph-name="d.ss01" unicode="&#xe133;" horiz-adv-x="617" 
 />
    <glyph glyph-name="f.ss01" unicode="&#xe135;" horiz-adv-x="339" 
 />
    <glyph glyph-name="h.ss01" unicode="&#xe137;" horiz-adv-x="559" 
 />
    <glyph glyph-name="k.ss01" unicode="&#xe140;" horiz-adv-x="587" 
 />
    <glyph glyph-name="l.ss01" unicode="&#xe141;" horiz-adv-x="350" 
 />
    <glyph glyph-name="b.ss02" unicode="&#xe157;" horiz-adv-x="542" 
 />
    <glyph glyph-name="d.ss02" unicode="&#xe159;" horiz-adv-x="617" 
 />
    <glyph glyph-name="h.ss02" unicode="&#xe163;" horiz-adv-x="559" 
 />
    <glyph glyph-name="k.ss02" unicode="&#xe166;" horiz-adv-x="587" 
 />
    <glyph glyph-name="l.ss02" unicode="&#xe167;" horiz-adv-x="350" 
d="M270 646q142 14 234 94q100 88 100 171q0 54 -39 62q-35 0 -77 -32q-57 -42 -218 -295zM-2464 -370q-34 0 -34 37q0 248 1321 263q213 3 436 3q297 0 611 -5q205 -3 351 -3l167 1q-78 80 -78 190q0 16 1 31q-147 -160 -255 -162q-30 0 -60 19q-51 32 -51 104q0 51 35 140
q58 149 185 349q-61 13 -122 51q-385 251 -541 255q-75 0 -111 -65q-12 -22 -12 -43q0 -52 43 -52q70 0 78 100q0 31 30 31q31 0 31 -33q-6 -72 -41 -113q-41 -46 -95 -46q-73 0 -101 69q-6 21 -6 42q0 36 19 73q56 98 166 98q173 -4 572 -264q63 -38 125 -48
q186 291 247 336.5t110 45.5q56 0 90 -47q18 -30 18 -77q0 -106 -123 -216q-57 -50 -138 -80q-72 -29 -174 -29q-223 -354 -223 -482q0 -34 23 -49q14 -9 28 -9q101 0 279 228q12 14 26 14q32 -6 32 -29q0 -7 -3 -14q-20 -59 -20 -131q0 -116 106 -175q22 -11 22 -32
q0 -27 -28 -34q-36 -10 -174 -10q-163 0 -425 5t-535 5q-411 0 -854 -14q-827 -40 -906 -160q-13 -13 -13 -33q0 -31 -29 -35z" />
    <glyph glyph-name="r.ss02" unicode="&#xe173;" horiz-adv-x="575" 
 />
    <glyph glyph-name="t.ss02" unicode="&#xe175;" horiz-adv-x="360" 
 />
    </font>
</defs>
</svg>
